<svg width="78" height="37" viewBox="0 0 78 37" xmlns="http://www.w3.org/2000/svg">
<rect fill="none" width="78" height="37"/>  
<path fill="#A1A1A1" d="M77.5,18.5c0,9.803-7.947,17.75-17.75,17.75H18.25C8.447,36.25,0.5,28.303,0.5,18.5l0,0

						c0-9.803,7.947-17.75,17.75-17.75H59.75C69.552,0.75,77.5,8.696,77.5,18.5L77.5,18.5z"/>

						<path fill="#FFFFFF" d="M37.698,22.194h-7.496v5.818h-2.164v-5.818h-7.476V20.41h17.136V22.194z

							 M21.549,17.471c3.675-0.441,6.279-2.437,6.468-4.474h-5.838v-1.743h5.858V9.008h2.164v2.246h5.879v1.743h-5.858

							c0.188,2.017,2.793,4.032,6.468,4.474l-0.777,1.7c-3.086-0.398-5.564-1.806-6.803-3.695c-1.219,1.89-3.697,3.275-6.805,3.695

							L21.549,17.471z"/>

						<path fill="#FFFFFF" d="M49.604,11.002c0,5.502-2.352,10.374-8.547,13.503l-1.196-1.658

							c4.642-2.373,7.14-5.712,7.581-10.08h-6.637v-1.765H49.604z M57.438,18.289h-2.877v9.659h-2.162V8.986h2.162v7.497h2.877

							V18.289z"/>


</svg>