<svg width="90" height="45" viewBox="0 0 90 45" xmlns="http://www.w3.org/2000/svg">
<rect fill="none" width="90" height="45"/>  
<path fill="#A8A8A8" d="M84.333,22.5c0,9.48-7.686,17.166-17.166,17.166H22.833c-9.481,0-17.167-7.686-17.167-17.166l0,0

						c0-9.481,7.686-17.167,17.167-17.167h44.334C76.648,5.333,84.333,13.019,84.333,22.5L84.333,22.5z"/>


						<path fill="#FFFFFF" d="M43.698,26.195h-7.497v5.817h-2.163v-5.817h-7.476V24.41h17.136V26.195z

							 M27.549,21.471c3.675-0.441,6.279-2.436,6.468-4.473h-5.838v-1.743h5.859v-2.247h2.163v2.247h5.879v1.743h-5.858

							c0.189,2.016,2.793,4.032,6.468,4.473l-0.778,1.701c-3.086-0.399-5.564-1.806-6.803-3.696

							c-1.218,1.89-3.696,3.276-6.804,3.696L27.549,21.471z"/>

						<path fill="#FFFFFF" d="M55.604,15.002c0,5.502-2.352,10.375-8.547,13.503l-1.197-1.659

							c4.643-2.373,7.141-5.712,7.582-10.08h-6.637v-1.764H55.604z M63.438,22.289h-2.877v9.66h-2.164V12.987h2.164v7.497h2.877

							V22.289z"/>

</svg>