<svg width="24" height="24" viewBox="0 0 24 24" xmlns="http://www.w3.org/2000/svg">
<rect fill="none" width="24" height="24"/> 
<path fill="#FFFFFF" d="M4.498,17.758v3.715h3.715L19.17,10.517L15.455,6.8L4.498,17.758z M22.043,7.643

						c0.385-0.388,0.385-1.011,0-1.396l-2.318-2.319c-0.387-0.388-1.01-0.388-1.396,0L16.514,5.74l3.715,3.715L22.043,7.643z"/>

					<polygon fill="#FFFFFF" points="11.255,7.523 7.471,7.523 7.471,11.311 6.208,11.311 6.208,7.523 2.422,7.523 2.422,6.264 

						6.208,6.264 6.208,2.477 7.471,2.477 7.471,6.264 11.255,6.264 "/>
</svg>