<svg width="72" height="72" viewBox="0 0 72 72" xmlns="http://www.w3.org/2000/svg">
<rect fill="none" width="72" height="72"/> 
<path fill="#5E5E5E" d="M25.226,11.48H15.99c-1.711,0-3.079,1.368-3.079,3.079v6.499H59.09v-6.499

							c-0.171-1.71-1.539-3.079-3.25-3.079h-9.235 M43.868,11.48H27.791V7.717h16.077V11.48z"/>

						<path fill="#5E5E5E" d="M19.239,64.282h33.522l2.907-41.389H16.332L19.239,64.282z M43.184,32.3

							c0-0.684,0.514-1.197,1.197-1.197c0.685,0,1.197,0.513,1.197,1.197v22.576c0,0.684-0.513,1.197-1.197,1.197

							c-0.684,0-1.197-0.514-1.197-1.197V32.3z M34.803,32.3c0-0.684,0.514-1.197,1.197-1.197c0.685,0,1.197,0.513,1.197,1.197

							v22.576c0,0.684-0.513,1.197-1.197,1.197c-0.684,0-1.197-0.514-1.197-1.197V32.3z M26.252,32.3

							c0-0.684,0.513-1.197,1.197-1.197c0.684,0,1.197,0.513,1.197,1.197v22.576c0,0.684-0.514,1.197-1.197,1.197

							c-0.685,0-1.197-0.514-1.197-1.197V32.3z"/>
</svg>