<svg width="35" height="40" viewBox="0 0 35 40" xmlns="http://www.w3.org/2000/svg">
<rect fill="none" width="35" height="40"/> 
<path fill="#091577" d="M7.103,2.145c-2.107,0-3.822,1.715-3.822,3.822v28.065

										c0,2.107,1.715,3.822,3.822,3.822h13.894l11.723-12.36V5.967c0-2.107-1.715-3.822-3.822-3.822H7.103z M5.28,34.032V5.967

										c0-1.005,0.817-1.822,1.822-1.822h21.794c1.005,0,1.822,0.817,1.822,1.822c0,0,0,17.965,0,18.73

										c-0.508,0.536-10.036,10.582-10.582,11.158c-0.806,0-13.035,0-13.035,0C6.098,35.854,5.28,35.037,5.28,34.032z"/>
<path fill="#091577" d="M20.743,24.39h-1.004l0.045,11.92l2-0.008c0,0-0.031-8.257-0.037-9.912

										c1.634,0,9.267,0,9.267,0v-2H20.743z"/>
<circle fill="#091577" cx="9.499" cy="10.396" r="1.094"/>
<path fill="#091577" d="M14.093,9.396c-0.552,0-1,0.448-1,1s0.448,1,1,1h13.063c0.552,0,1-0.448,1-1

										s-0.448-1-1-1H14.093z"/>
<circle fill="#091577" cx="9.499" cy="19.708" r="1.094"/> 
<path fill="#091577" d="M14.093,18.708c-0.552,0-1,0.448-1,1s0.448,1,1,1h13.063c0.552,0,1-0.448,1-1

										s-0.448-1-1-1H14.093z"/>
<circle fill="#091577" cx="9.999" cy="29.208" r="1.094"/>
<path fill="#091577" d="M14.593,28.208c-0.552,0-1,0.448-1,1s0.448,1,1,1h5.625c0.552,0,1-0.448,1-1

										s-0.448-1-1-1H14.593z"/>
</svg>