<svg width="175" height="75" viewBox="0 0 175 75" xmlns="http://www.w3.org/2000/svg">
<rect fill="none" width="175" height="75"/> 
<path fill="#FFFFFF" stroke="#949494" d="M165.524,37.5c0,16.357-13.259,29.618-29.617,29.618H39.092

						c-16.357,0-29.618-13.261-29.618-29.618l0,0c0-16.357,13.26-29.618,29.618-29.618h96.815

						C152.265,7.882,165.524,21.143,165.524,37.5L165.524,37.5z"/>


						<path fill="#727272" d="M75.866,39.961c-3.282-1.181-5.809-3.643-7.088-6.662

							c-1.28,3.347-3.971,6.071-7.417,7.318l-1.411-2.1c4.364-1.575,7.417-5.48,7.417-9.648v-1.477h-6.563v-2.199h15.719v2.199

							h-6.465v1.444c0,3.84,2.888,7.515,7.154,9.025L75.866,39.961z M84.924,49.38v2.199H65.267v-9.09h2.724v6.892H84.924z

							 M81.379,30.937v-8.106h2.724v21.561h-2.724V33.136h-5.907v-2.199H81.379z"/>

						<path fill="#727272" d="M98.608,31.856c0,4.693,2.363,9.55,6.333,11.683l-1.542,2.035

							c-2.855-1.608-4.955-4.594-6.038-8.139c-1.018,3.741-3.085,7.023-5.973,8.762l-1.575-2.002

							c3.971-2.363,6.235-7.515,6.235-12.339v-1.411h-5.447v-2.232h5.447v-4.364h2.593v4.364h5.415v2.232h-5.447V31.856z

							 M106.55,23.487h2.56v27.206h-2.56V36.647h-4.496v-2.231h4.496V23.487z M115.049,22.798v29.404h-2.592V22.798H115.049z"/>

</svg>