<svg width="175" height="75" viewBox="0 0 175 75" xmlns="http://www.w3.org/2000/svg">
<rect fill="none" width="175" height="75"/> 
<path fill="#0161F3" stroke="#0161F3" d="M165.525,37.5c0,16.357-13.26,29.618-29.617,29.618H39.092

						c-16.357,0-29.618-13.261-29.618-29.618l0,0c0-16.357,13.26-29.618,29.618-29.618h96.815

						C152.265,7.882,165.525,21.143,165.525,37.5L165.525,37.5z"/>

						<path fill="#FFFFFF" d="M76.375,40.159c-3.38-1.182-6.071-3.61-7.417-6.695

							c-1.247,3.347-3.971,6.005-7.449,7.252l-1.411-2.1c4.463-1.542,7.449-5.382,7.449-9.583v-1.608h-6.728V25.26h16.146v2.166

							h-6.662v1.608c0,3.971,3.052,7.548,7.384,8.992L76.375,40.159z M84.743,49.38v2.199H64.921v-9.254h2.691v7.056H84.743z

							 M83.857,44.359h-2.691V22.831h2.691V44.359z"/>

						<path fill="#FFFFFF" d="M104.695,28.443H89.731V26.31H95.9v-3.282h2.658v3.282h6.137V28.443z M97.246,40.06

							c-3.708,0-6.301-1.969-6.301-5.054c0-3.02,2.592-5.021,6.301-5.021c3.708,0,6.268,2.001,6.268,5.021

							C103.514,38.091,100.954,40.06,97.246,40.06z M97.246,38.058c2.297,0,3.873-1.214,3.873-3.052c0-1.805-1.576-3.02-3.873-3.02

							c-2.33,0-3.873,1.214-3.873,3.02C93.374,36.844,94.916,38.058,97.246,38.058z M114.901,47.083

							c0,3.282-3.708,5.119-9.845,5.119s-9.845-1.837-9.845-5.119c0-3.314,3.708-5.152,9.845-5.152S114.901,43.769,114.901,47.083z

							 M112.21,47.083c0-1.969-2.691-3.085-7.154-3.085c-4.496,0-7.187,1.116-7.187,3.085c0,1.936,2.691,3.052,7.187,3.052

							C109.52,50.135,112.21,49.019,112.21,47.083z M108.404,40.388h-2.56V23.389h2.56v7.417h3.741v-8.007h2.592v18.64h-2.592

							v-8.434h-3.741V40.388z"/>
</svg>