<svg width="175" height="75" viewBox="0 0 175 75" xmlns="http://www.w3.org/2000/svg">
<rect fill="none" width="175" height="75"/> 
<path fill="#FFFFFF" stroke="#949494" d="M165.524,37.5c0,16.357-13.259,29.618-29.617,29.618H39.092

						c-16.357,0-29.618-13.261-29.618-29.618l0,0c0-16.357,13.26-29.618,29.618-29.618h96.815

						C152.265,7.882,165.524,21.143,165.524,37.5L165.524,37.5z"/>

						<path fill="#727272" d="M85.711,36.433v2.231H59.063v-2.231H85.711z M82.43,46.508

							c0,3.413-3.807,5.316-10.075,5.316c-6.268,0-10.074-1.903-10.074-5.316c0-3.413,3.807-5.316,10.074-5.316

							C78.623,41.192,82.43,43.095,82.43,46.508z M82.594,33.611H62.411V23.602h19.985v2.166H65.103v5.677h17.491V33.611z

							 M79.706,46.508c0-2.067-2.725-3.216-7.352-3.216s-7.351,1.148-7.351,3.216c0,2.068,2.724,3.216,7.351,3.216

							C76.949,49.724,79.706,48.576,79.706,46.508z"/>

						<path fill="#727272" d="M115.936,38.599v2.199H89.223v-2.199h12.011v-3.085h-8.565v-7.187h17.196v-3.052

							H92.603v-2.1h19.92v7.154H95.326v3.085h17.819v2.1h-9.188v3.085H115.936z M92.209,43.062h20.478v8.533h-2.691v-6.334H92.209

							V43.062z"/>


</svg>