<svg width="175" height="75" viewBox="0 0 175 75" xmlns="http://www.w3.org/2000/svg">
<rect fill="none" width="175" height="75"/> 
<path fill="#FFFFFF" stroke="#949494" d="M165.524,37.5c0,16.357-13.259,29.618-29.617,29.618H39.092

						c-16.357,0-29.618-13.261-29.618-29.618l0,0c0-16.357,13.26-29.618,29.618-29.618h96.815

						C152.265,7.882,165.524,21.143,165.524,37.5L165.524,37.5z"/>

						<path fill="#727272" d="M77.54,40.076c-6.137,1.116-13.127,1.214-18.148,1.214l-0.36-2.199

							c2.264,0,4.922-0.033,7.646-0.131v-2.954c-3.577-0.427-5.94-2.592-5.94-5.743c0-3.446,2.954-5.776,7.253-5.776

							c4.266,0,7.252,2.33,7.252,5.776c0,3.117-2.362,5.283-5.874,5.71v2.888c2.724-0.164,5.447-0.361,7.975-0.755L77.54,40.076z

							 M67.99,34.005c2.756,0,4.726-1.477,4.726-3.741c0-2.232-1.97-3.741-4.726-3.741c-2.822,0-4.759,1.509-4.759,3.741

							C63.231,32.528,65.168,34.005,67.99,34.005z M65.955,49.659h16.967v2.199H63.265v-8.106h2.69V49.659z M86.203,33.086v2.231

							h-4.332v10.337h-2.69V23.143h2.69v9.944H86.203z"/>

						<path fill="#727272" d="M115.968,46.705v2.199H89.223v-2.199h7.482v-5.579h-4.136v-9.09h17.459v-4.562

							H92.504v-2.199h20.149v8.926H95.228v4.726h18.115v2.199h-4.595v5.579H115.968z M99.362,46.705h6.728v-5.579h-6.728V46.705z"/>
</svg>