<svg width="175" height="75" viewBox="0 0 175 75" xmlns="http://www.w3.org/2000/svg">
<rect fill="none" width="175" height="75"/> 
<path fill="#0161F3" stroke="#0161F3" d="M165.524,37.5c0,16.357-13.259,29.618-29.617,29.618H39.092

						c-16.357,0-29.618-13.261-29.618-29.618l0,0c0-16.357,13.26-29.618,29.618-29.618h96.815

						C152.265,7.882,165.524,21.143,165.524,37.5L165.524,37.5z"/>


						<path fill="#FFFFFF" d="M85.744,45.655v2.199H59.063v-2.199h11.945v-6.333h-8.795v-15.03h2.658v5.251h15.03

							v-5.251h2.626v15.03h-8.796v6.333H85.744z M64.872,37.155h15.03v-5.415h-15.03V37.155z"/>

						<path fill="#FFFFFF" d="M115.936,41.914h-6.957v9.747h-2.691v-9.747H98.87v9.747h-2.69v-9.747h-6.957v-2.166

							h26.713V41.914z M109.995,25.505h-17.59v-2.166h20.314v7.581H95.195v3.61h18.181v2.166H92.504v-7.81h17.491V25.505z"/>

</svg>