<svg width="35" height="40" viewBox="0 0 35 40" xmlns="http://www.w3.org/2000/svg">
<rect fill="none" width="35" height="40"/> 
<path fill="#444444" d="M5.563,1.688c-1.654,0-3,1.346-3,3v30.625c0,1.654,1.346,3,3,3h23.875

								c1.654,0,3-1.346,3-3V4.688c0-1.654-1.346-3-3-3H5.563z M4.563,35.313V4.688c0-0.551,0.449-1,1-1h23.875c0.552,0,1,0.449,1,1

								v30.625c0,0.552-0.448,1-1,1H5.563C5.011,36.313,4.563,35.864,4.563,35.313z"/>
<rect x="3.688" y="31.688" fill="#444444" width="27.75" height="2"/>
<path fill="#444444" d="M12.563,2.063l-1.061,0.439l-0.439,1.061v3.375l0.439,1.061l1.061,0.439h10.125

								c0.827,0,1.5-0.673,1.5-1.5V3.563c0-0.827-0.673-1.5-1.5-1.5H12.563z M22.188,4.063c0,0.6,0,1.775,0,2.375

								c-0.857,0-8.268,0-9.125,0c0-0.6,0-1.775,0-2.375C13.919,4.063,21.331,4.063,22.188,4.063z"/>
<path fill="#444444" d="M18.021,13.938c-0.552,0-1,0.447-1,1s0.448,1,1,1h7.017c0.552,0,1-0.447,1-1

									s-0.448-1-1-1H18.021z"/>
<path fill="#444444" d="M18.021,18.688c-0.552,0-1,0.447-1,1s0.448,1,1,1h9.625c0.553,0,1-0.447,1-1

									s-0.447-1-1-1H18.021z"/>
<path fill="#444444" d="M18.021,23.313c-0.552,0-1,0.447-1,1s0.448,1,1,1h9.625c0.553,0,1-0.447,1-1

									s-0.447-1-1-1H18.021z"/>
<path fill="#444444" d="M12.929,12.869c0,0-2.504,2.713-3.634,3.937c-0.571-0.865-1.234-1.871-1.234-1.871

									c-0.304-0.461-0.924-0.588-1.386-0.284c-0.461,0.305-0.588,0.925-0.284,1.386l1.938,2.938

									c0.169,0.257,0.447,0.421,0.754,0.446c0.307,0.024,0.607-0.093,0.816-0.318l4.5-4.875c0.375-0.406,0.349-1.039-0.057-1.413

									C13.937,12.438,13.304,12.464,12.929,12.869z"/>
<path fill="#444444" d="M12.929,19.869c0,0-2.504,2.713-3.634,3.937c-0.571-0.865-1.234-1.871-1.234-1.871

									c-0.304-0.461-0.924-0.588-1.386-0.284c-0.461,0.305-0.588,0.925-0.284,1.386l1.938,2.938

									c0.169,0.257,0.447,0.421,0.754,0.446c0.307,0.024,0.607-0.093,0.816-0.318l4.5-4.875c0.375-0.406,0.349-1.039-0.057-1.413

									C13.937,19.438,13.304,19.464,12.929,19.869z"/>
</svg>