<svg width="72" height="72" viewBox="0 0 72 72" xmlns="http://www.w3.org/2000/svg">
<rect fill="none" width="72" height="72"/> 
<path fill="#FFFFFF" enable-background="new" d="M62.816,56.25

							c0,2.761-2.203,5-4.921,5H14.104c-2.717,0-4.92-2.239-4.92-5v-38c0-2.761,2.203-5,4.92-5h43.791c2.718,0,4.921,2.239,4.921,5

							V56.25z"/>


								<path fill="#B6E4F9" d="M63.185,31.25v-12c0-2.761-2.202-5-4.92-5H14.474c-2.718,0-4.92,2.239-4.92,5v12

									H63.185z"/>


						<path fill="#757575" d="M14.104,13.25c-3.256,0-5.904,2.691-5.904,6v38c0,3.309,2.648,6,5.904,6h43.791

							c3.256,0,5.905-2.691,5.905-6v-38c0-3.309-2.649-6-5.905-6H14.104z M10.168,57.25v-38c0-2.206,1.767-4,3.937-4h43.791

							c2.171,0,3.937,1.794,3.937,4v38c0,2.206-1.766,4-3.937,4H14.104C11.935,61.25,10.168,59.456,10.168,57.25z"/>

									<rect x="8.709" y="31" fill="#757575" width="54.75" height="2"/> 


									<rect x="25.459" y="31.25" fill="#757575" width="2" height="31.25"/> 


									<rect x="44.209" y="31.5" fill="#757575" width="2" height="30"/> 


									<rect x="8.459" y="46.5" fill="#757575" width="54" height="2"/> 


								<rect x="20.209" y="6.75" fill="#757575" width="3" height="7.75"/> 



								<rect x="48.209" y="6.75" fill="#757575" width="3" height="7.75"/> 


</svg>