<svg width="24" height="24" viewBox="0 0 24 24" xmlns="http://www.w3.org/2000/svg">
<rect fill="none" width="24" height="24"/> 
<path fill="#d4d4d4" d="M12,0C5.376,0,0,5.376,0,12c0,6.623,5.376,12,12,12c6.623,0,12-5.377,12-12C24,5.376,18.623,0,12,0z

						 M12,3.6c1.992,0,3.6,1.608,3.6,3.6s-1.607,3.6-3.6,3.6S8.4,9.192,8.4,7.2S10.008,3.6,12,3.6z M12,20.641

						c-3,0-5.652-1.537-7.2-3.864c0.036-2.388,4.8-3.696,7.2-3.696c2.389,0,7.165,1.309,7.2,3.696

						C17.652,19.104,15,20.641,12,20.641z"/>
</svg>