<svg width="72" height="72" viewBox="0 0 72 72" xmlns="http://www.w3.org/2000/svg">
<rect fill="none" width="72" height="72"/> 
<circle fill="#D8E7FF" cx="36" cy="35.999" r="32.165"/> 
<path fill="#5D5E93" d="M33.726,21.227v29.546c0,1.256,1.018,2.274,2.274,2.274s2.274-1.019,2.274-2.274

								V21.227c0-1.257-1.018-2.275-2.274-2.275S33.726,19.97,33.726,21.227z"/>

							<path fill="#5D5E93" d="M49.164,34.391c0,0-10.61,10.61-13.165,13.165

								c-2.555-2.555-13.164-13.165-13.164-13.165c-0.888-0.889-2.329-0.889-3.217,0c-0.889,0.889-0.889,2.329,0,3.217

								l14.772,14.773c0.888,0.888,2.328,0.888,3.217,0l14.773-14.773c0.889-0.888,0.889-2.328,0-3.217

								C51.494,33.502,50.053,33.502,49.164,34.391z"/>
</svg>