<svg width="72" height="72" viewBox="0 0 72 72" xmlns="http://www.w3.org/2000/svg">
<rect fill="none" width="72" height="72"/> 
<path fill="#0868D7" d="M59.074,6.583H12.926c-3.625,0-6.593,2.966-6.593,6.593v46.147c0,3.625,2.968,6.593,6.593,6.593

								h46.148c3.624,0,6.593-2.968,6.593-6.593V13.176C65.667,9.549,62.698,6.583,59.074,6.583L59.074,6.583z M47.537,52.73h-4.944

								L36,28.009L29.407,52.73h-4.944l-7.912-32.962h5.604L27.1,44.49l6.592-24.722h4.616L44.9,44.49l4.944-24.722h5.604

								L47.537,52.73L47.537,52.73z"/>
</svg>