<svg width="72" height="72" viewBox="0 0 72 72" xmlns="http://www.w3.org/2000/svg">
<rect fill="none" width="72" height="72"/> 
<path fill="#01A930" d="M59.075,6.333H12.926c-3.625,0-6.593,2.965-6.593,6.593v46.148c0,3.625,2.968,6.593,6.593,6.593

								h46.148c3.623,0,6.592-2.968,6.592-6.593V12.926C65.667,9.298,62.698,6.333,59.075,6.333L59.075,6.333z M49.844,52.481

								h-6.592L36,39.956l-7.253,12.525h-6.593L32.704,36L22.155,19.519h6.593L36,32.044l7.252-12.525h6.592L39.296,36

								L49.844,52.481L49.844,52.481z"/>
</svg>