<svg width="72" height="72" viewBox="0 0 72 72" xmlns="http://www.w3.org/2000/svg">
<rect fill="none" width="72" height="72"/> 
<path fill="#C3C3C3" d="M11.454,62.3c-7.647-8.25-7.163-21.108,1.087-28.756L41.025,7.133c5.992-5.56,15.354-5.206,20.91,0.788

						c5.561,5.998,5.207,15.353-0.787,20.914L38.088,50.216c-3.745,3.472-9.602,3.248-13.072-0.497

						c-3.47-3.742-3.248-9.599,0.495-13.068L45.859,17.78l5.029,5.426L30.301,42.301c-1.496,1.385,1.021,4.096,2.515,2.713

						l23.3-21.61c2.985-2.768,3.163-7.474,0.397-10.456c-2.769-2.982-7.479-3.159-10.461-0.396L17.569,38.969

						c-5.235,4.856-5.546,13.063-0.692,18.297c4.854,5.235,13.064,5.547,18.299,0.691l25.771-23.896l5.029,5.427L40.208,63.387

						C31.964,71.031,19.101,70.543,11.454,62.3z"/>
</svg>