<svg width="24" height="24" viewBox="0 0 24 24" xmlns="http://www.w3.org/2000/svg">
<rect fill="none" width="24" height="24"/> 
<path fill="#505153" d="M5.15,19.974c-2.323-2.28-2.356-6.009-0.074-8.331l7.883-8.024c1.658-1.688,4.37-1.713,6.06-0.053

						c1.688,1.659,1.712,4.372,0.053,6.06l-6.382,6.494c-1.036,1.055-2.733,1.069-3.788,0.034c-1.054-1.035-1.069-2.733-0.033-3.787

						l5.63-5.73l1.528,1.501l-5.698,5.8c-0.413,0.421,0.351,1.169,0.765,0.749l6.448-6.563c0.826-0.841,0.815-2.205-0.026-3.03

						c-0.84-0.826-2.205-0.814-3.029,0.026l-7.883,8.024c-1.449,1.475-1.428,3.852,0.047,5.302c1.475,1.447,3.853,1.427,5.301-0.046

						l7.133-7.26l1.529,1.501l-7.133,7.258C11.199,22.223,7.473,22.256,5.15,19.974z"/>
</svg>