<svg width="24" height="24" viewBox="0 0 24 24" xmlns="http://www.w3.org/2000/svg">
<rect fill="none" width="24" height="24"/> 
					<path fill="#505153" d="M18,13v7H4V6h5.02C9.07,5.29,9.24,4.62,9.5,4H4C2.9,4,2,4.9,2,6v14c0,1.1,0.9,2,2,2h14c1.1,0,2-0.9,2-2

						v-5L18,13z M16.5,18h-11l2.75-3.529l1.96,2.359l2.75-3.54L16.5,18z M19.3,8.89C19.74,8.19,20,7.38,20,6.5

						C20,4.01,17.99,2,15.5,2S11,4.01,11,6.5s2.01,4.5,4.49,4.5c0.88,0,1.699-0.26,2.39-0.7L21,13.42L22.42,12L19.3,8.89z M15.5,9

						C14.12,9,13,7.88,13,6.5S14.12,4,15.5,4S18,5.12,18,6.5S16.88,9,15.5,9z"/>
</svg>