<svg width="72" height="72" viewBox="0 0 72 72" xmlns="http://www.w3.org/2000/svg">
<rect fill="none" width="72" height="72"/> 
<path fill="#6579FF" d="M58.975,6.135H12.632c-3.64,0-6.62,2.977-6.62,6.62v46.342

								c0,3.641,2.98,6.62,6.62,6.62h46.343c3.64,0,6.62-2.979,6.62-6.62V12.755C65.595,9.112,62.614,6.135,58.975,6.135z

								 M21.387,18.041c3.659,0,6.625,2.966,6.625,6.625s-2.966,6.625-6.625,6.625s-6.625-2.966-6.625-6.625

								S17.728,18.041,21.387,18.041z M12.632,55.788l11.586-14.896l8.275,9.931l11.585-14.896l14.896,19.861H12.632z"/>
</svg>