<svg width="72" height="72" viewBox="0 0 72 72" xmlns="http://www.w3.org/2000/svg">
<rect fill="none" width="72" height="72"/> 
<polyline fill="none" stroke="#FFFFFF" stroke-width="2" stroke-linecap="round" stroke-linejoin="round" stroke-miterlimit="10" points="

						246.625,141.289 272.625,141.289 272.625,159.289 258.625,159.289 "/>

					

						<polyline fill="none" stroke="#FFFFFF" stroke-width="2" stroke-linecap="round" stroke-linejoin="round" stroke-miterlimit="10" points="

						250.625,159.289 246.625,159.289 246.625,145.289 "/>

					

						<polyline fill="none" stroke="#FFFFFF" stroke-width="2" stroke-linecap="round" stroke-linejoin="round" stroke-miterlimit="10" points="

						258.625,159.29 250.625,165.29 250.625,159.29 "/>
<path fill="#969FAD" d="M48.851,35.637c2.747-3.062,4.436-7.094,4.436-11.521C53.286,14.584,45.531,6.83,36,6.83

							s-17.286,7.754-17.286,17.286S26.469,41.401,36,41.401c3.359,0,6.488-0.979,9.146-2.645

							c9.4,3.542,15.871,12.143,16.694,22.091H10.162c0.56-6.696,3.701-12.94,8.812-17.396c0.901-0.784,0.994-2.147,0.209-3.048

							c-0.78-0.899-2.147-0.994-3.047-0.21C9.533,45.946,5.75,54.26,5.75,63.009c0,1.195,0.969,2.161,2.161,2.161h56.178

							c1.194,0,2.161-0.965,2.161-2.161C66.25,51.155,59.38,40.569,48.851,35.637z M23.036,24.116

							c0-7.15,5.815-12.964,12.964-12.964s12.964,5.814,12.964,12.964S43.148,37.08,36,37.08S23.036,31.266,23.036,24.116z"/>
</svg>