<svg width="24" height="24" viewBox="0 0 24 24" xmlns="http://www.w3.org/2000/svg">
<rect fill="none" width="24" height="24"/> 
<path fill="#707070" d="M2.44,7.538c0.039-1.861,0.696-3.246,1.939-4.347C4.778,2.83,5.271,2.674,5.826,2.752

						c0.234,0.031,0.469,0.055,0.703,0.039c0.439-0.022,0.736,0.189,0.884,0.571c0.524,1.36,1.032,2.721,1.54,4.089

						C9.126,7.92,8.829,8.289,8.579,8.625c-0.29,0.399-0.642,0.751-0.986,1.103c-0.352,0.359-0.399,0.562-0.156,1.001

						c1.415,2.572,3.401,4.55,6.099,5.771c0.094,0.039,0.188,0.094,0.282,0.141c0.359,0.164,0.681,0.125,0.953-0.188

						c0.5-0.587,1.048-1.126,1.509-1.743c0.306-0.408,0.517-0.479,0.979-0.274c1.377,0.595,2.666,1.345,3.979,2.072

						c0.243,0.133,0.329,0.336,0.321,0.617c-0.07,2.307-1.393,3.512-3.715,4.043c-1.125,0.259-2.165-0.023-3.198-0.398

						c-2.167-0.781-4.254-1.705-6.006-3.253c-1.392-1.236-2.62-2.611-3.66-4.152c-0.797-1.188-1.626-2.354-2.087-3.738

						C2.627,8.89,2.432,8.14,2.44,7.538z"/>
</svg>