<svg width="24" height="24" viewBox="0 0 24 24" xmlns="http://www.w3.org/2000/svg">
<rect fill="none" width="24" height="24"/> 
<path fill="#CBCBCB" d="M16.688,11.779l1.839-4.258l0.852,0.368c0.469,0.202,1.018-0.016,1.22-0.484l0,0

						c0.203-0.468-0.016-1.017-0.483-1.219l-8.518-3.679c-0.468-0.202-1.018,0.016-1.219,0.484l0,0

						c-0.203,0.468,0.015,1.017,0.484,1.22l0.852,0.368L9.874,8.836c-0.611,1.414-2.245,2.062-3.659,1.452l0,0l-0.736,1.703

						l5.085,2.196L7.99,20.15l0.484,1.22l1.22-0.483l2.575-5.963l5.137,2.218l0.735-1.703l0,0

						C16.727,14.827,16.077,13.193,16.688,11.779z"/>
</svg>