<svg width="50" height="50" viewBox="0 0 50 50" xmlns="http://www.w3.org/2000/svg">
<rect fill="none" width="50" height="50"/> 
<circle fill="#E1E2E4" cx="25" cy="25" r="24.365"/> 

							<path fill="#FFFFFF" d="M30.363,36.208c-0.159-1.703-0.1-2.891-0.1-4.446c0.794-0.405,2.216-2.985,2.456-5.165

								c0.624-0.051,1.608-0.644,1.895-2.979c0.155-1.254-0.461-1.961-0.836-2.182c1.015-2.968,3.123-12.151-3.9-13.1

								c-0.723-1.235-2.573-1.858-4.981-1.858c-9.622,0.173-10.783,7.065-8.673,14.958c-0.375,0.221-0.992,0.928-0.838,2.182

								c0.29,2.335,1.272,2.928,1.896,2.979c0.239,2.179,1.717,4.76,2.513,5.165c0,1.556,0.06,2.743-0.099,4.446

								c-1.258,3.288-7.291,3.797-11.413,6.529c4.363,4.12,10.244,6.649,16.718,6.649c6.478,0,12.361-2.531,16.726-6.654

								C37.622,40.003,31.621,39.494,30.363,36.208z"/>

							<path fill="#D0D0D1" d="M0.5,25C0.5,38.509,11.49,49.5,25,49.5c13.51,0,24.5-10.99,24.5-24.501c0-13.51-10.99-24.5-24.5-24.5

								C11.49,0.5,0.5,11.489,0.5,25z M0.772,25C0.772,11.64,11.641,0.771,25,0.771C38.36,0.771,49.229,11.64,49.229,25

								c0,13.361-10.869,24.229-24.229,24.229C11.641,49.229,0.772,38.358,0.772,25z"/>
</svg>