<svg width="100" height="50" viewBox="0 0 100 50" xmlns="http://www.w3.org/2000/svg">
<rect fill="none" width="100" height="50"/>  
<path fill="#BCBCBC" d="M96.5,25c0,9.527-7.723,17.25-17.25,17.25h-58.5C11.223,42.25,3.5,34.527,3.5,25l0,0

						c0-9.525,7.723-17.25,17.25-17.25h58.5C88.777,7.75,96.5,15.474,96.5,25L96.5,25z"/>

						<path fill="#FFFFFF" d="M28.013,15.519v10.165H25.85v-4.034h-3.507c-0.378,2.142-2.31,3.591-4.83,3.591

							c-2.856,0-4.956-1.827-4.956-4.452c0-2.604,2.1-4.431,4.956-4.431c2.499,0,4.41,1.407,4.83,3.528h3.507v-4.368L28.013,15.519

							L28.013,15.519z M20.369,20.789c0-1.617-1.218-2.646-2.856-2.646c-1.68,0-2.877,1.028-2.877,2.646

							c0,1.597,1.197,2.667,2.877,2.667C19.151,23.456,20.369,22.386,20.369,20.789z M25.871,26.584h2.142v7.665H15.687v-7.665

							h2.142v2.144h8.043L25.871,26.584L25.871,26.584z M25.871,30.406h-8.043v2.101h8.043V30.406z"/>

						<path fill="#FFFFFF" d="M48.803,28.097h-7.581v6.385h-2.163v-6.385h-7.455v-1.742h17.199V28.097z M46.661,24.022H33.704

							v-7.497h12.957V24.022z M44.519,18.248h-8.673v4.032h8.673V18.248z"/>

						<path fill="#FFFFFF" d="M62.664,26.584c-3.906,0.735-8.316,0.798-11.487,0.798l-0.272-1.764c1.365,0,2.982,0,4.684-0.063

							v-1.725c-2.186-0.336-3.652-1.764-3.652-3.717c0-2.247,1.953-3.78,4.703-3.78c2.752,0,4.684,1.533,4.684,3.78

							c0,1.932-1.428,3.36-3.57,3.717v1.639c1.617-0.105,3.255-0.231,4.768-0.462L62.664,26.584z M55.691,32.359h10.752v1.744

							H53.527V28.79h2.164V32.359z M56.637,22.279c1.596,0,2.666-0.84,2.666-2.163c0-1.302-1.07-2.142-2.666-2.142

							c-1.576,0-2.688,0.84-2.688,2.142C53.949,21.439,55.063,22.279,56.637,22.279z M68.396,21.733v1.785h-2.604v6.51h-2.163

							v-14.49h2.163v6.195H68.396z"/>

						<path fill="#FFFFFF" d="M87.443,30.47v1.784H70.266V30.47h4.598v-3.275h-2.52v-6.089h10.92v-2.521H72.302v-1.742h13.104v5.984

							H74.465v2.625h11.361v1.741h-2.793v3.277H87.443L87.443,30.47z M77.006,30.47h3.885v-3.275h-3.885V30.47z"/>

</svg>