<svg width="72" height="72" viewBox="0 0 72 72" xmlns="http://www.w3.org/2000/svg">
<rect fill="none" width="72" height="72"/> 
<path fill="#ABACD3" d="M50.063,35.336l5.52-12.773l2.555,1.104c1.406,0.605,3.053-0.048,3.662-1.453l0,0

						c0.606-1.403-0.05-3.05-1.45-3.656L34.795,7.521c-1.405-0.605-3.055,0.048-3.658,1.453l0,0

						c-0.609,1.403,0.045,3.05,1.451,3.659l2.557,1.104l-5.522,12.771c-1.832,4.242-6.735,6.186-10.978,4.356l0,0l-2.208,5.109

						l15.256,6.589l-7.722,17.889l1.452,3.659l3.658-1.45l7.726-17.889l15.412,6.656l2.203-5.109l0,0

						C50.18,44.481,48.231,39.58,50.063,35.336z"/>
</svg>