<svg width="100" height="50" viewBox="0 0 100 50" xmlns="http://www.w3.org/2000/svg">
<rect fill="none" width="100" height="50"/>  
<path fill="#B1B1C1" d="M96.5,25c0,9.527-7.723,17.25-17.25,17.25h-58.5C11.223,42.25,3.5,34.527,3.5,25l0,0

						c0-9.526,7.723-17.25,17.25-17.25h58.5C88.778,7.75,96.5,15.474,96.5,25L96.5,25z"/>


						<path fill="#FFFFFF" d="M48.918,30.051v1.784H31.741v-1.784h7.476v-3.822h-5.544v-9.786h2.143v3.192h8.988v-3.192h2.141v9.786

							h-5.564v3.822H48.918z M35.814,24.486h8.987v-3.108h-8.987V24.486z"/>

						<path fill="#FFFFFF" d="M68.259,28.141h-4.263v6.025h-2.164v-6.025h-4.39v6.025h-2.161v-6.025H51.04v-1.744h17.198

							L68.259,28.141z M63.997,17.577h-10.92v-1.743h13.125V21H55.302v1.975h11.319v1.743H53.118v-5.334h10.879V17.577z"/>

</svg>