<svg width="72" height="72" viewBox="0 0 72 72" xmlns="http://www.w3.org/2000/svg">
<rect fill="none" width="72" height="72"/> 
<path fill="#FF5800" d="M59.075,6.333H12.926c-3.625,0-6.593,2.965-6.593,6.593v46.148c0,3.625,2.968,6.593,6.593,6.593

								h46.149c3.623,0,6.592-2.968,6.592-6.593V12.926C65.667,9.298,62.698,6.333,59.075,6.333L59.075,6.333z M28.748,40.616

								v11.865h-5.933V19.519h14.174c4.944,0,7.252,0.988,9.229,2.965c2.309,1.979,2.967,4.616,2.967,7.584

								c0,3.296-0.988,5.933-2.967,7.581c-1.977,1.647-4.285,2.636-9.229,2.636h-8.241V40.616z"/>

							<path id="Shape_2_" fill="#FF5800" d="M28.748,36V24.131h7.581c2.308,0,3.956,0.663,4.944,1.98

								c0.991,1.316,1.648,2.308,1.648,3.956c0,1.977-0.657,2.968-1.648,4.284C40.285,35.34,38.968,36,36.66,36H28.748L28.748,36z"

								/>
</svg>