<svg width="100" height="50" viewBox="0 0 100 50" xmlns="http://www.w3.org/2000/svg">
<rect fill="none" width="100" height="50"/>  
<path fill="#1FCEA3" d="M96.5,25c0,9.527-7.723,17.25-17.25,17.25h-58.5C11.223,42.25,3.5,34.527,3.5,25l0,0

						c0-9.526,7.723-17.25,17.25-17.25h58.5C88.777,7.75,96.5,15.474,96.5,25L96.5,25z"/>


						<path fill="#FFFFFF" d="M42.797,26.807c-2.184-0.715-3.779-2.185-4.62-4.054c-0.84,2.017-2.436,3.634-4.704,4.39l-1.134-1.681

							c3.003-1.008,4.704-3.465,4.704-6.026v-0.692h-4.116V17h10.374v1.743h-4.053v0.692c0,2.414,1.723,4.726,4.641,5.67

							L42.797,26.807z M48.361,32.371v1.764H35.427v-6.048h2.185v4.284H48.361z M47.816,29.348h-2.164V15.55h2.164V29.348z"/>

						<path fill="#FFFFFF" d="M60.857,19.352h-9.45V17.65h3.675v-1.953h2.121v1.953h3.654V19.352z M56.152,26.723

							c-2.373,0-4.053-1.303-4.053-3.275c0-1.953,1.68-3.276,4.053-3.276c2.395,0,4.074,1.323,4.074,3.276

							C60.229,25.42,58.547,26.723,56.152,26.723z M56.152,25.146c1.261,0,2.143-0.672,2.143-1.701c0-1.028-0.882-1.7-2.143-1.7

							c-1.28,0-2.12,0.672-2.12,1.7C54.032,24.475,54.873,25.146,56.152,25.146z M67.661,31.111c0,2.142-2.394,3.381-6.405,3.381

							c-4.011,0-6.426-1.239-6.426-3.381c0-2.143,2.415-3.36,6.426-3.36C65.268,27.751,67.661,28.969,67.661,31.111z M65.499,31.111

							c0-1.135-1.513-1.723-4.242-1.723c-2.709,0-4.263,0.588-4.263,1.723c0,1.134,1.554,1.742,4.263,1.742

							C63.986,32.854,65.499,32.245,65.499,31.111z M63.523,26.848h-2.018V15.865h2.018v4.599h1.975v-4.956h2.059v11.971h-2.059

							V22.25h-1.975V26.848z"/>


</svg>