<svg width="100" height="50" viewBox="0 0 100 50" xmlns="http://www.w3.org/2000/svg">
<rect fill="none" width="100" height="50"/>  
<path fill="#BCBCBC" d="M96.5,25c0,9.527-7.723,17.25-17.25,17.25h-58.5C11.223,42.25,3.5,34.527,3.5,25l0,0

						c0-9.525,7.723-17.25,17.25-17.25h58.5C88.778,7.75,96.5,15.474,96.5,25L96.5,25z"/>

						<path fill="#FFFFFF" d="M43.49,26.584c-3.906,0.734-8.316,0.798-11.487,0.798l-0.272-1.764c1.365,0,2.982,0,4.685-0.063V23.83

							c-2.187-0.336-3.651-1.764-3.651-3.717c0-2.247,1.953-3.78,4.703-3.78c2.752,0,4.684,1.533,4.684,3.78

							c0,1.932-1.428,3.36-3.57,3.717v1.639c1.617-0.105,3.255-0.231,4.768-0.462L43.49,26.584z M36.518,32.359H47.27v1.744H34.354

							V28.79h2.164V32.359z M37.463,22.279c1.596,0,2.666-0.84,2.666-2.163c0-1.302-1.07-2.142-2.666-2.142

							c-1.576,0-2.688,0.84-2.688,2.142C34.775,21.439,35.889,22.279,37.463,22.279z M49.223,21.733v1.785h-2.604v6.509h-2.163

							V15.538h2.163v6.195H49.223z"/>

						<path fill="#FFFFFF" d="M68.27,30.471v1.783H51.092v-1.783h4.598v-3.275h-2.52v-6.089h10.92v-2.521H53.128v-1.742h13.104

							v5.984H55.292v2.625h11.361v1.741H63.86v3.277H68.27L68.27,30.471z M57.833,30.471h3.885v-3.275h-3.885V30.471z"/>


</svg>