<svg width="100" height="50" viewBox="0 0 100 50" xmlns="http://www.w3.org/2000/svg">
<rect fill="none" width="100" height="50"/>  
<path fill="#62B7FF" d="M96.5,25c0,9.527-7.723,17.25-17.25,17.25h-58.5C11.223,42.25,3.5,34.527,3.5,25l0,0

						c0-9.526,7.723-17.25,17.25-17.25h58.5C88.777,7.75,96.5,15.474,96.5,25L96.5,25z"/>

						<path fill="#FFFFFF" d="M48.897,24.16v1.785H31.762V24.16H48.897z M46.797,30.797c0,2.205-2.457,3.465-6.53,3.465

							c-4.054,0-6.531-1.26-6.531-3.465c0-2.186,2.478-3.445,6.531-3.445C44.34,27.352,46.797,28.611,46.797,30.797z M46.923,22.585

							H33.882v-6.637h12.915v1.743H36.024v3.15h10.898V22.585z M44.613,30.797c0-1.156-1.575-1.785-4.347-1.785

							c-2.772,0-4.326,0.629-4.326,1.785c0,1.176,1.554,1.783,4.326,1.783C43.038,32.58,44.613,31.973,44.613,30.797z"/>

						<path fill="#FFFFFF" d="M68.238,25.609v1.742H51.039v-1.742h7.518v-1.722h-5.313v-4.894h10.688v-1.596H53.202v-1.659h12.872

							v4.81H55.365v1.68h11.088v1.659h-5.732v1.722H68.238z M52.971,28.633H66.18v5.523h-2.162v-3.779H52.971V28.633z"/>



</svg>