<svg width="100" height="50" viewBox="0 0 100 50" xmlns="http://www.w3.org/2000/svg">
<rect fill="none" width="100" height="50"/>  
<path fill="#F5AF26" d="M96.5,25c0,9.527-7.723,17.25-17.25,17.25h-58.5C11.223,42.25,3.5,34.527,3.5,25l0,0

						c0-9.525,7.723-17.25,17.25-17.25h58.5C88.777,7.75,96.5,15.474,96.5,25L96.5,25z"/>

						<path fill="#FFFFFF" d="M22.112,16.778c0,4.914-3.255,8.316-8.736,9.87l-0.882-1.72c4.347-1.177,6.909-3.466,7.287-6.385

							h-6.279v-1.764H22.112L22.112,16.778z M15.729,27.151h12.348v7.225H15.729V27.151z M17.849,32.632h8.106v-3.759h-8.106V32.632

							z M28.076,15.623v10.752h-2.163v-4.242h-3.759v-1.784h3.759v-4.726H28.076z"/>

						<polygon fill="#FFFFFF" points="48.867,30.597 48.867,32.38 31.688,32.38 31.688,30.597 39.164,30.597 39.164,27.026 

							33.81,27.026 33.81,17.072 46.788,17.072 46.788,18.836 36.014,18.836 36.014,21.125 46.367,21.125 46.367,22.826 

							36.014,22.826 36.014,25.305 46.954,25.305 46.954,27.026 41.348,27.026 41.348,30.597 "/>

						<path fill="#FFFFFF" d="M62.726,26.71c-3.906,0.734-8.314,0.798-11.485,0.798l-0.273-1.764c1.365,0,2.982,0,4.684-0.063

							v-1.722c-2.186-0.336-3.653-1.764-3.653-3.717c0-2.247,1.953-3.78,4.703-3.78c2.752,0,4.685,1.533,4.685,3.78

							c0,1.932-1.429,3.36-3.57,3.717v1.64c1.617-0.104,3.257-0.23,4.769-0.461L62.726,26.71z M55.753,32.485h10.752v1.744H53.59

							v-5.313h2.163V32.485z M56.699,22.406c1.597,0,2.668-0.84,2.668-2.163c0-1.302-1.071-2.142-2.668-2.142

							c-1.574,0-2.688,0.84-2.688,2.142C54.011,21.566,55.125,22.406,56.699,22.406z M68.458,21.86v1.785h-2.604v6.51h-2.162v-14.49

							h2.162v6.195H68.458z"/>

						<path fill="#FFFFFF" d="M87.505,30.597v1.783H70.328v-1.783h4.6v-3.277h-2.52V21.23h10.92v-2.521H72.365v-1.742h13.104v5.984

							H74.529v2.625h11.359v1.743h-2.793v3.275h4.409L87.505,30.597L87.505,30.597z M77.07,30.597h3.885v-3.277H77.07V30.597z"/>

</svg>