<svg width="72" height="72" viewBox="0 0 72 72" xmlns="http://www.w3.org/2000/svg">
<rect fill="none" width="72" height="72"/> 
<polyline fill="none" stroke="#FFFFFF" stroke-width="2" stroke-linecap="round" stroke-linejoin="round" stroke-miterlimit="10" points="

						285.889,186.728 311.889,186.728 311.889,204.728 297.889,204.728 "/>

					

						<polyline fill="none" stroke="#FFFFFF" stroke-width="2" stroke-linecap="round" stroke-linejoin="round" stroke-miterlimit="10" points="

						289.889,204.728 285.889,204.728 285.889,190.728 "/>

					

						<polyline fill="none" stroke="#FFFFFF" stroke-width="2" stroke-linecap="round" stroke-linejoin="round" stroke-miterlimit="10" points="

						297.889,204.729 289.889,210.729 289.889,204.729 "/>
<path fill="#969FAD" d="M60.689,30.016h-6.734v-5.986c0-9.9-8.055-17.955-17.955-17.955s-17.955,8.055-17.955,17.955v5.986

							h-6.734c-1.236,0-2.244,1.005-2.244,2.244s1.008,2.244,2.244,2.244h47.135v26.934H13.557v-20.2

							c0-1.241-1.006-2.244-2.246-2.244c-1.236,0-2.244,1.003-2.244,2.244v22.444c0,1.242,1.008,2.245,2.244,2.245h49.379

							c1.24,0,2.244-1.003,2.244-2.245V32.26C62.934,31.021,61.93,30.016,60.689,30.016z M22.533,24.029

							c0-7.427,6.039-13.466,13.467-13.466s13.467,6.039,13.467,13.466v5.986H22.533V24.029z"/>

						<path fill="#969FAD" d="M44.979,47.971c0-4.951-4.027-8.978-8.979-8.978s-8.979,4.026-8.979,8.978s4.027,8.979,8.979,8.979

							S44.979,52.922,44.979,47.971z M31.512,47.971c0-2.476,2.014-4.489,4.488-4.489c2.477,0,4.49,2.014,4.49,4.489

							S38.477,52.46,36,52.46C33.525,52.46,31.512,50.446,31.512,47.971z"/>
</svg>