<svg width="72" height="72" viewBox="0 0 72 72" xmlns="http://www.w3.org/2000/svg">
<rect fill="none" width="72" height="72"/> 
<path fill="#FF1A00" d="M33.705,24.858L33.705,24.858L33.705,24.858c0.33-1.312,0.656-1.969,0.656-2.951V21.25

								c0.326-1.639,0.326-2.948,0-3.278c0,0,0,0,0-0.33l-0.326-0.327l0,0c0,0,0,0.327-0.33,0.327

								C33.049,19.612,33.049,21.907,33.705,24.858L33.705,24.858L33.705,24.858z M23.871,47.473

								c-0.656,0.326-1.309,0.656-1.639,0.982c-2.295,1.969-3.934,4.262-4.261,5.246l0,0C19.938,53.371,21.906,51.406,23.871,47.473

								L23.871,47.473L23.871,47.473L23.871,47.473z M54.027,42.557c-0.326-0.326-1.639-1.313-6.229-1.313h-0.653l0,0

								c0,0,0,0,0,0.33c2.292,0.982,4.587,1.639,6.226,1.639h0.656l0,0h0.327c0,0,0,0,0-0.33l0,0

								C54.354,42.883,54.027,42.883,54.027,42.557L54.027,42.557z M58.944,6.5H13.056C9.451,6.5,6.5,9.448,6.5,13.056v45.889

								c0,3.604,2.951,6.555,6.556,6.555h45.889c3.604,0,6.556-2.951,6.556-6.555V13.056C65.5,9.448,62.549,6.5,58.944,6.5

								L58.944,6.5z M55.341,45.178c-0.657,0.33-1.64,0.656-2.952,0.656c-2.621,0-6.555-0.656-9.833-2.295

								c-5.573,0.656-9.834,1.313-13.111,2.621c-0.326,0-0.326,0-0.656,0.33c-3.934,6.881-7.211,10.16-9.833,10.16

								c-0.656,0-0.983,0-1.31-0.326l-1.639-0.982v-0.33c-0.33-0.656-0.33-0.982-0.33-1.641c0.33-1.639,2.295-4.586,6.229-6.881

								c0.656-0.33,1.639-0.982,2.948-1.639c0.986-1.639,1.969-3.607,3.277-5.9c1.64-3.281,2.625-6.559,3.607-9.506l0,0

								c-1.313-3.934-1.968-6.227-0.655-10.816c0.325-1.313,1.312-2.625,2.621-2.625h0.656c0.656,0,1.312,0.329,1.966,0.659

								c2.294,2.292,1.312,7.535,0,11.798v0.327c1.312,3.604,3.277,6.556,5.246,8.521c0.982,0.655,1.639,1.311,2.948,1.968

								c1.638,0,2.95-0.327,4.264-0.327c3.93,0,6.556,0.654,7.538,2.293c0.326,0.656,0.326,1.313,0.326,1.969

								C56.323,43.539,55.993,44.521,55.341,45.178L55.341,45.178z M34.035,32.393c-0.657,2.299-1.969,4.918-3.278,7.869

								c-0.656,1.313-1.313,2.295-1.969,3.607h0.33h0.326c4.261-1.639,8.194-2.625,10.816-2.953

								c-0.656-0.324-0.983-0.654-1.31-0.982C37.313,37.966,35.344,35.345,34.035,32.393L34.035,32.393z"/>
</svg>