<svg width="100" height="50" viewBox="0 0 100 50" xmlns="http://www.w3.org/2000/svg">
<rect fill="none" width="100" height="50"/>  
<path fill="#FF7368" d="M96.5,25c0,9.527-7.723,17.25-17.25,17.25h-58.5C11.223,42.25,3.5,34.527,3.5,25l0,0

							c0-9.526,7.723-17.25,17.25-17.25h58.5C88.777,7.75,96.5,15.474,96.5,25L96.5,25z"/>

							<path fill="#FFFFFF" d="M22.806,16.706c0,4.914-3.255,8.316-8.736,9.87l-0.882-1.722c4.347-1.177,6.909-3.466,7.287-6.385

								h-6.279v-1.764L22.806,16.706L22.806,16.706z M16.421,27.08H28.77v7.224H16.421V27.08z M18.542,32.561h8.106v-3.76h-8.106

								V32.561z M28.77,15.55v10.753h-2.163v-4.243h-3.759v-1.784h3.759V15.55H28.77z"/>

							<polygon fill="#FFFFFF" points="49.56,30.524 49.56,32.307 32.381,32.307 32.381,30.524 39.857,30.524 39.857,26.954 

								34.502,26.954 34.502,17 47.48,17 47.48,18.764 36.708,18.764 36.708,21.053 47.061,21.053 47.061,22.753 36.708,22.753 

								36.708,25.232 47.648,25.232 47.648,26.955 42.042,26.955 42.042,30.524 "/>

							<path fill="#FFFFFF" d="M68.88,30.44v1.764H51.702V30.44h4.01v-4.938c-1.512-0.84-2.414-2.205-2.414-3.885

								c0-3.024,2.918-4.956,6.973-4.956c4.031,0,6.973,1.932,6.973,4.956c0,1.68-0.904,3.023-2.416,3.885v4.938H68.88z

								 M55.397,21.62c0,2.016,1.996,3.275,4.873,3.275c2.854,0,4.85-1.26,4.85-3.275c0-1.995-1.994-3.255-4.85-3.255

								C57.394,18.364,55.397,19.625,55.397,21.62z M57.876,30.44h4.787V26.3c-0.734,0.188-1.553,0.272-2.393,0.272

								s-1.66-0.084-2.396-0.252v4.119H57.876z"/>

							<path fill="#FFFFFF" d="M81.312,26.323c-2.162-0.608-3.76-1.932-4.619-3.59c-0.84,1.89-2.438,3.381-4.662,4.073l-1.051-1.68

								c2.92-0.903,4.559-3.15,4.559-5.522v-0.169h-3.99v-1.722h3.99v-2.247h2.186v2.247h3.969v1.722h-3.99v0.169

								c0,2.162,1.721,4.221,4.619,5.061L81.312,26.323z M86.813,30.985c0,2.227-2.436,3.55-6.404,3.55

								c-3.967,0-6.385-1.323-6.385-3.55c0-2.228,2.416-3.527,6.385-3.527S86.813,28.759,86.813,30.985z M84.651,30.985

								c0-1.196-1.533-1.848-4.242-1.848c-2.688,0-4.221,0.649-4.221,1.848c0,1.197,1.533,1.869,4.221,1.869

								C83.118,32.854,84.651,32.182,84.651,30.985z M84.567,20.8v-5.25h2.162v11.487h-2.162v-4.452h-3.424V20.8H84.567z"/>

</svg>