<svg width="115" height="50" viewBox="0 0 115 50" xmlns="http://www.w3.org/2000/svg">
<rect fill="none" width="115" height="50"/>  
<path fill="#27DFB2" d="M110.084,25c0,9.527-7.611,17.25-17,17.25H21.917c-9.389,0-17-7.723-17-17.25l0,0

						c0-9.527,7.611-17.25,17-17.25h71.167C102.473,7.75,110.084,15.473,110.084,25L110.084,25z"/>
<path fill="#FFFFFF" d="M38.643,19.792c-1.177,2.898-3.97,4.83-8.148,5.775l-0.756-1.764

							c4.494-0.966,6.825-3.045,7.119-5.691h-6.09v-1.743h8.483c0,0.609-0.042,1.197-0.146,1.743h3.927v-2.583h2.163v9.618h-2.163

							v-1.722h-4.641v-1.68h4.641v-1.953H38.643z M45.719,32.581v1.743h-12.83v-5.103h10.143v-1.575H32.847v-1.722h12.348v4.914

							H35.051v1.743H45.719z"/>

						<path fill="#FFFFFF" d="M54.581,20.443c0,3.423,1.197,6.531,3.948,7.959l-1.26,1.659

							c-1.807-0.987-2.982-2.709-3.675-4.809c-0.651,2.415-1.87,4.347-3.738,5.46l-1.323-1.617c2.751-1.596,3.948-4.893,3.948-8.652

							v-1.05h-3.424v-1.785h8.694v1.785h-3.171V20.443z M65.081,15.508v18.984h-2.058V24.79h-2.079v8.82h-2.037V15.865h2.037v7.14

							h2.079v-7.497H65.081z"/>

						<path fill="#FFFFFF" d="M77.766,26.008v1.764c3.423,0.21,5.418,1.386,5.418,3.36

							c0,2.142-2.436,3.36-6.531,3.36c-4.073,0-6.53-1.218-6.53-3.36c0-1.974,2.036-3.171,5.48-3.381v-1.743h-7.497v-1.722h17.157

							v1.722H77.766z M68.967,21.619c3.507-0.357,5.942-1.827,6.237-3.528h-5.503v-1.743h14.008v1.743h-5.544

							c0.294,1.701,2.729,3.171,6.236,3.528l-0.756,1.701c-3.339-0.357-5.943-1.722-6.951-3.675

							c-1.028,1.953-3.633,3.318-6.95,3.675L68.967,21.619z M76.652,29.41c-2.771,0-4.326,0.588-4.326,1.722

							c0,1.092,1.555,1.701,4.326,1.701c2.772,0,4.348-0.609,4.348-1.701C81,29.998,79.425,29.41,76.652,29.41z"/>

</svg>