<svg width="130" height="60" viewBox="0 0 130 60" xmlns="http://www.w3.org/2000/svg">
<rect fill="none" width="130" height="60"/>  
<path fill="#FFFFFF" d="M124.166,52.667c0,1.656-1.369,3-3.061,3H8.894c-1.689,0-3.061-1.344-3.061-3V7.333

						c0-1.656,1.371-3,3.061-3h112.214c1.689,0,3.061,1.344,3.061,3v45.333H124.166z"/>

					<path fill="#AEAEAE" d="M8.894,4.083c-1.826,0-3.311,1.458-3.311,3.25v45.333c0,1.792,1.484,3.25,3.311,3.25h112.214

						c1.824,0,3.311-1.458,3.311-3.25V7.333c0-1.792-1.484-3.25-3.311-3.25H8.894z M6.083,52.667V7.333

						c0-1.516,1.261-2.75,2.811-2.75h112.214c1.549,0,2.811,1.234,2.811,2.75v45.333c0,1.518-1.262,2.75-2.811,2.75H8.894

						C7.344,55.417,6.083,54.184,6.083,52.667z"/>

						<path fill="#AEAEAE" d="M55.136,31.62H44.912V20.748h2.472v3.384h5.304v-3.384h2.448V31.62z M49.856,38.436

							h12.096v2.016H47.36v-6.864h2.496V38.436z M52.688,26.052h-5.304v3.576h5.304V26.052z M64.161,25.572v2.04h-3.072v7.512

							h-2.472V19.211h2.472v6.36H64.161z"/>

						<path fill="#AEAEAE" d="M69.752,33.66c2.496-0.024,4.464-0.144,6.696-0.6l0.216,2.04

							c-2.616,0.504-4.848,0.6-7.896,0.6h-1.44V21.755h8.017v2.016h-5.592V33.66z M85.089,19.164v21.672h-2.353V29.748h-2.568V39.78

							h-2.327V19.62h2.327v8.112h2.568v-8.568H85.089z"/>


</svg>