<svg width="115" height="50" viewBox="0 0 115 50" xmlns="http://www.w3.org/2000/svg">
<rect fill="none" width="115" height="50"/>  
<path fill="#C6C6C6" d="M110.084,25c0,9.527-7.611,17.25-17,17.25H21.917c-9.389,0-17-7.723-17-17.25l0,0

						c0-9.526,7.611-17.25,17-17.25h71.167C102.473,7.75,110.084,15.474,110.084,25L110.084,25z"/>
<path fill="#FFFFFF" d="M28.962,19.781c-1.176,2.898-3.969,4.83-8.148,5.775l-0.756-1.764

							c4.494-0.966,6.825-3.045,7.119-5.691h-6.09v-1.743h8.484c0,0.609-0.042,1.197-0.147,1.743h3.927v-2.583h2.163v9.618h-2.163

							v-1.722H28.71v-1.68h4.641v-1.953H28.962z M36.039,32.57v1.743H23.208V29.21h10.143v-1.575H23.166v-1.722h12.348v4.914H25.371

							v1.743H36.039z"/>

						<path fill="#FFFFFF" d="M44.901,20.432c0,3.423,1.197,6.531,3.948,7.959l-1.26,1.659

							c-1.806-0.987-2.982-2.709-3.675-4.809c-0.651,2.415-1.869,4.347-3.738,5.46l-1.323-1.617

							c2.751-1.596,3.948-4.893,3.948-8.652v-1.05h-3.423v-1.785h8.694v1.785h-3.171V20.432z M55.4,15.498v18.984h-2.058v-9.702

							h-2.079v8.82h-2.037V15.854h2.037v7.14h2.079v-7.497H55.4z"/>

						<path fill="#FFFFFF" d="M70.878,27.089c-1.659,0.294-3.402,0.504-5.082,0.588v6.258h-2.163v-6.132

							c-1.765,0.063-3.423,0.084-4.914,0.084l-0.273-1.785c3.528,0,8.232-0.042,12.306-0.609L70.878,27.089z M59.223,23.33

							c2.771-0.609,4.389-2.247,4.41-4.074h-3.97v-1.701h3.948v-1.995h2.185v1.995h3.969v1.701h-3.969

							c0.021,1.722,1.616,3.213,4.347,3.78l-0.861,1.68c-2.163-0.462-3.695-1.512-4.536-2.877c-0.818,1.512-2.394,2.646-4.641,3.15

							L59.223,23.33z M74.133,15.519v18.984H71.97V15.519H74.133z"/>

						<path fill="#FFFFFF" d="M94.944,30.344v1.785H77.766v-1.785h7.413v-4.431h2.162v4.431H94.944z

							 M93.306,26.292c-3.108-0.609-5.797-2.499-7.015-5.019c-1.26,2.52-3.947,4.41-7.035,5.019l-0.924-1.806

							c3.759-0.63,6.805-3.465,6.805-6.384v-1.428h2.288v1.428c0,2.94,3.046,5.754,6.783,6.384L93.306,26.292z"/>

</svg>