<svg width="72" height="72" viewBox="0 0 72 72" xmlns="http://www.w3.org/2000/svg">
<rect fill="none" width="72" height="72"/> 
<path fill="#F91F1F" d="M35.999,17.767L57.25,37.033c2.076,1.613,5.199,1.394,6.978-0.489c1.587-1.682,1.587-4.162,0-5.843

							L39.487,8.244c-1.929-1.741-5.046-1.741-6.975,0L7.772,30.701c-1.778,1.884-1.537,4.72,0.539,6.332

							c1.853,1.44,4.584,1.44,6.438,0L35.999,17.767z"/>

						<path fill="#F91F1F" d="M35.999,44.713L57.25,63.98c2.076,1.615,5.199,1.395,6.978-0.489c1.587-1.682,1.587-4.161,0-5.843

							L39.487,35.192c-1.929-1.741-5.046-1.741-6.975,0L7.772,57.648c-1.778,1.885-1.537,4.718,0.539,6.332

							c1.853,1.441,4.584,1.441,6.438,0L35.999,44.713z"/>

</svg>