<svg width="105" height="105" viewBox="0 0 105 105" xmlns="http://www.w3.org/2000/svg">
<rect fill="none" width="105" height="105"/> 
<path fill="#0066FF" d="M4.74,52.5c0,25.245,20.538,45.782,45.782,45.782

								c25.245,0,45.782-20.538,45.782-45.782S75.766,6.718,50.521,6.718C25.277,6.718,4.74,27.255,4.74,52.5z M5.74,52.5

								c0-24.693,20.089-44.782,44.782-44.782S95.304,27.807,95.304,52.5S75.214,97.282,50.521,97.282S5.74,77.193,5.74,52.5z"/>

							<path fill="#0066FF" d="M39,45.38c-1.561,3.93-5.434,6.633-10.923,7.97l-0.752-1.644

								c6.13-1.449,9.809-4.57,10.171-8.723h-8.889v-1.672h11.119c0,0.836-0.084,1.645-0.251,2.425h5.852V40.03h2.034v12.79h-2.034

								v-2.703h-6.716v-1.616h6.716V45.38H39z M48.251,63.047v1.672H31.448v-6.353h13.905v-2.703H31.392v-1.672h15.967v5.963H33.454

								v3.093H48.251z"/>

							<path fill="#0066FF" d="M59.788,46.913c0,4.57,1.951,8.61,5.434,10.394l-1.226,1.589

								c-2.48-1.365-4.235-3.846-5.127-6.911c-0.836,3.511-2.647,6.242-5.267,7.774l-1.282-1.561

								c3.567-1.95,5.518-6.186,5.518-11.285v-2.174h-4.96v-1.7h11.592v1.7h-4.681V46.913z M73.72,40.03V64.97h-1.95V51.901h-3.511

								v11.814h-1.923V40.615h1.923v9.558h3.511V40.03H73.72z"/>

							<circle fill="#FFFFFF" cx="86.289" cy="77.993" r="14.394"/> 

							<path fill="#0066FF" d="M85.917,61.98c-8.744,0-15.841,7.097-15.841,15.841c0,8.744,7.097,15.841,15.841,15.841

								c8.744,0,15.841-7.097,15.841-15.841C101.758,69.078,94.66,61.98,85.917,61.98z M82.749,85.743l-7.921-7.921l2.234-2.234

								l5.687,5.671l12.023-12.023l2.233,2.25L82.749,85.743z"/>
</svg>