<svg width="130" height="60" viewBox="0 0 130 60" xmlns="http://www.w3.org/2000/svg">
<rect fill="none" width="130" height="60"/>  
<path fill="#FFFFFF" d="M124.166,52.667c0,1.656-1.369,3-3.061,3H8.894c-1.689,0-3.061-1.344-3.061-3V7.333

						c0-1.656,1.371-3,3.061-3h112.214c1.689,0,3.061,1.344,3.061,3v45.333H124.166z"/>

					<path fill="#AEAEAE" d="M8.894,4.083c-1.826,0-3.311,1.458-3.311,3.25v45.333c0,1.792,1.484,3.25,3.311,3.25h112.214

						c1.824,0,3.311-1.458,3.311-3.25V7.333c0-1.792-1.484-3.25-3.311-3.25H8.894z M6.083,52.667V7.333

						c0-1.516,1.261-2.75,2.811-2.75h112.214c1.549,0,2.811,1.234,2.811,2.75v45.333c0,1.518-1.262,2.75-2.811,2.75H8.894

						C7.344,55.417,6.083,54.184,6.083,52.667z"/>

						<path fill="#AEAEAE" d="M54.98,24.049c-1.344,3.312-4.536,5.52-9.312,6.601l-0.864-2.017c5.136-1.104,7.8-3.48,8.136-6.504

							h-6.96v-1.992h9.695c0,0.696-0.047,1.368-0.168,1.992h4.488v-2.952h2.474v10.992h-2.474V28.2h-5.304v-1.92h5.304v-2.231H54.98

							z M63.069,38.665v1.99H48.403v-5.832h11.593v-1.799H48.355v-1.969h14.112v5.616H50.877v1.992L63.069,38.665L63.069,38.665z"/>

						<path fill="#AEAEAE" d="M73.196,24.793c0,3.912,1.369,7.464,4.514,9.097l-1.441,1.896c-2.063-1.13-3.408-3.097-4.199-5.496

							c-0.744,2.76-2.137,4.968-4.271,6.239l-1.512-1.848c3.143-1.824,4.512-5.592,4.512-9.888v-1.2h-3.912v-2.04h9.936v2.04h-3.625

							V24.793z M85.196,19.152v21.697h-2.352V29.761H80.47v10.08h-2.328v-20.28h2.328v8.16h2.375v-8.568L85.196,19.152

							L85.196,19.152z"/>
</svg>