<svg width="105" height="105" viewBox="0 0 105 105" xmlns="http://www.w3.org/2000/svg">
<rect fill="none" width="105" height="105"/> 
<path d="M4.74,52.5c0,25.245,20.538,45.781,45.782,45.781c25.246,0,45.783-20.537,45.783-45.781S75.766,6.718,50.521,6.718

						C25.277,6.718,4.74,27.255,4.74,52.5z M5.74,52.5c0-24.693,20.089-44.782,44.782-44.782S95.305,27.807,95.305,52.5

						c0,24.693-20.091,44.781-44.784,44.781S5.74,77.193,5.74,52.5z"/>


						<path d="M39.563,54.115H28.075v-12.21h2.242v4.125h7.031v-4.125h2.215V54.115z M37.348,47.79h-7.031v4.51

							h7.031V47.79z M33.14,62.393h14.284v1.843H30.871v-7.728h2.27V62.393z M49.998,47.598v1.897h-3.682v8.745h-2.27V40.145h2.27

							v7.453H49.998z"/>

						<path d="M55.673,57.195c3.653,0,6.698-0.165,10.407-0.743l0.194,1.87c-3.903,0.605-7.087,0.743-10.962,0.743

							h-1.882V49.33h8.553v-5.17h-8.608v-1.815h10.851v8.828h-8.553V57.195z M72.945,40.09v24.723h-2.27V54.335H65.61v-1.843h5.065

							V47.57h-4.899v-1.842h4.899V40.09H72.945z"/>
</svg>