<svg width="24" height="24" viewBox="0 0 24 24" xmlns="http://www.w3.org/2000/svg">
<rect fill="none" width="24" height="24"/> 
<path fill="#6FACE0" d="M17.688,3.333H6.313C5.864,3.333,5.5,3.697,5.5,4.146v0.542C5.5,5.136,5.864,5.5,6.313,5.5

						c0,3.079,1.727,5.678,4.091,6.5c-2.364,0.821-4.091,3.42-4.091,6.5c-0.449,0-0.813,0.364-0.813,0.813v0.542

						c0,0.449,0.364,0.813,0.813,0.813h11.375c0.448,0,0.813-0.364,0.813-0.813v-0.542c0-0.448-0.364-0.813-0.813-0.813

						c0-3.079-1.727-5.678-4.091-6.5c2.364-0.821,4.091-3.42,4.091-6.5c0.448,0,0.813-0.364,0.813-0.813V4.146

						C18.5,3.697,18.136,3.333,17.688,3.333z M15.146,16.333H8.854c0.578-1.584,1.764-2.709,3.146-2.709

						C13.382,13.625,14.568,14.749,15.146,16.333z M15.146,7.667H8.854C8.614,7.008,8.479,6.27,8.479,5.5h7.041

						C15.521,6.272,15.385,7.01,15.146,7.667z"/>
</svg>