<svg width="115" height="50" viewBox="0 0 115 50" xmlns="http://www.w3.org/2000/svg">
<rect fill="none" width="115" height="50"/>  
<path fill="#6ACB29" d="M110.084,25c0,9.527-7.611,17.25-17,17.25H21.917c-9.389,0-17-7.723-17-17.25l0,0

						c0-9.526,7.611-17.25,17-17.25h71.167C102.473,7.75,110.084,15.474,110.084,25L110.084,25z"/>
<path fill="#FFFFFF" d="M28.961,19.792c-1.176,2.898-3.969,4.83-8.148,5.775l-0.756-1.764

							c4.494-0.966,6.825-3.045,7.119-5.691h-6.09v-1.743h8.484c0,0.609-0.042,1.197-0.147,1.743h3.927v-2.583h2.163v9.618H33.35

							v-1.722h-4.641v-1.68h4.641v-1.953H28.961z M36.038,32.581v1.743H23.208v-5.103H33.35v-1.575H23.166v-1.722h12.348v4.914

							H25.37v1.743H36.038z"/>

						<path fill="#FFFFFF" d="M44.9,20.443c0,3.423,1.197,6.531,3.948,7.959l-1.26,1.659

							c-1.806-0.987-2.982-2.709-3.675-4.809c-0.651,2.415-1.869,4.347-3.738,5.46l-1.323-1.617

							c2.751-1.596,3.948-4.893,3.948-8.652v-1.05h-3.423v-1.785h8.694v1.785H44.9V20.443z M55.4,15.508v18.984h-2.058V24.79h-2.079

							v8.82h-2.037V15.865h2.037v7.14h2.079v-7.497H55.4z"/>

						<path fill="#FFFFFF" d="M70.163,26.596c-3.905,0.735-8.315,0.798-11.486,0.798l-0.273-1.764

							c1.365,0,2.982,0,4.684-0.063v-1.722c-2.185-0.336-3.654-1.764-3.654-3.717c0-2.247,1.953-3.78,4.704-3.78

							s4.683,1.533,4.683,3.78c0,1.932-1.428,3.36-3.57,3.717v1.638c1.617-0.105,3.256-0.231,4.768-0.462L70.163,26.596z

							 M63.191,32.371h10.752v1.743H61.028v-5.313h2.163V32.371z M64.137,22.291c1.596,0,2.667-0.84,2.667-2.163

							c0-1.302-1.071-2.142-2.667-2.142c-1.575,0-2.688,0.84-2.688,2.142C61.448,21.451,62.562,22.291,64.137,22.291z

							 M75.896,21.745v1.785h-2.604v6.51H71.13V15.55h2.162v6.195H75.896z"/>

						<path fill="#FFFFFF" d="M94.943,30.481v1.785H77.766v-1.785h4.599v-3.276h-2.52v-6.09h10.92v-2.52H79.803

							v-1.743h13.104v5.985H81.965v2.625h11.361v1.743h-2.793v3.276H94.943z M84.506,30.481h3.886v-3.276h-3.886V30.481z"/>

</svg>