<svg width="115" height="50" viewBox="0 0 115 50" xmlns="http://www.w3.org/2000/svg">
<rect fill="none" width="115" height="50"/>  
<path fill="#FFFFFF" stroke="#999999" d="M110.082,25c0,9.527-7.61,17.25-17,17.25H21.917c-9.389,0-17-7.723-17-17.25l0,0

						c0-9.526,7.611-17.25,17-17.25h71.166C102.472,7.75,110.082,15.474,110.082,25L110.082,25z"/>

						<path fill="#8B8B8B" d="M33.416,27.002c-1.59,0.282-3.261,0.484-4.872,0.564v5.998h-2.073v-5.877

							c-1.69,0.06-3.281,0.08-4.71,0.08L21.5,26.057c3.382,0,7.891-0.04,11.795-0.584L33.416,27.002z M22.245,23.399

							c2.657-0.583,4.207-2.154,4.227-3.905h-3.804v-1.63h3.784v-1.912h2.093v1.912h3.805v1.63h-3.805

							c0.021,1.651,1.55,3.08,4.167,3.623l-0.826,1.61c-2.073-0.442-3.542-1.449-4.347-2.758c-0.786,1.45-2.295,2.537-4.449,3.02

							L22.245,23.399z M36.536,15.912v18.195h-2.073V15.912H36.536z"/>

						<path fill="#8B8B8B" d="M56.483,30.123v1.71H40.018v-1.71h7.105v-4.248h2.073v4.248H56.483z M54.913,26.237

							c-2.979-0.583-5.555-2.396-6.723-4.811c-1.208,2.415-3.784,4.228-6.743,4.811l-0.886-1.73

							c3.603-0.604,6.521-3.321,6.521-6.119v-1.369h2.194v1.369c0,2.817,2.918,5.516,6.501,6.119L54.913,26.237z"/>

						<path fill="#8B8B8B" d="M67.856,17.824c0,5.273-2.255,9.943-8.193,12.942l-1.147-1.59

							c4.449-2.274,6.845-5.475,7.268-9.662h-6.361v-1.69H67.856z M75.364,24.808h-2.758v9.26h-2.072V15.892h2.072v7.186h2.758

							V24.808z"/>

						<path fill="#8B8B8B" d="M93.5,24.244v1.692H77.056v-1.692H93.5z M91.487,30.706

							c0,2.113-2.354,3.342-6.26,3.342c-3.885,0-6.26-1.229-6.26-3.342c0-2.133,2.375-3.361,6.26-3.361

							C89.133,27.345,91.487,28.573,91.487,30.706z M91.629,22.414h-12.42v-6.16h2.073v4.489h10.347V22.414z M89.395,30.706

							c0-1.147-1.51-1.73-4.167-1.73s-4.147,0.583-4.147,1.73c0,1.107,1.49,1.73,4.147,1.73S89.395,31.813,89.395,30.706z"/>

</svg>