<svg width="105" height="105" viewBox="0 0 105 105" xmlns="http://www.w3.org/2000/svg">
<rect fill="none" width="105" height="105"/> 
<path fill="#C57B32" d="M4.74,52.5c0,25.245,20.538,45.782,45.782,45.782

							c25.245,0,45.782-20.538,45.782-45.782S75.766,6.718,50.521,6.718C25.277,6.718,4.74,27.255,4.74,52.5z M5.74,52.5

							c0-24.693,20.089-44.782,44.782-44.782S95.304,27.807,95.304,52.5S75.214,97.282,50.521,97.282S5.74,77.193,5.74,52.5z"/>


						<circle fill="#FFFFFF" cx="86.289" cy="77.993" r="14.394"/> 

						<path fill="#C57B32" d="M85.917,61.98c-8.744,0-15.841,7.097-15.841,15.841c0,8.744,7.097,15.841,15.841,15.841

							c8.744,0,15.841-7.097,15.841-15.841C101.758,69.078,94.66,61.98,85.917,61.98z M82.749,85.743l-7.921-7.921l2.234-2.234

							l5.687,5.671l12.023-12.023l2.233,2.25L82.749,85.743z"/>

						<path fill="#C57B32" d="M39.968,54.62H28.46V42.244h2.016v4.312h7.504v-4.312h1.988V54.62z M37.98,48.208

							h-7.504v4.732h7.504V48.208z M33.304,63.244h14.588v1.708H31.26v-7.84h2.044V63.244z M50.496,48.152v1.708h-3.752v8.988H44.7

							v-18.34h2.044v7.644H50.496z"/>

						<path fill="#C57B32" d="M56.068,57.532c3.584,0,5.992-0.168,8.764-0.756l0.196,1.68

							C62.06,59.1,59.54,59.24,55.676,59.24h-1.624V43.532h9.352v1.708h-7.336V57.532z M74.324,40.48v25.032h-1.96V52.268h-3.752

							v11.956H66.68V41.04h1.932v9.52h3.752V40.48H74.324z"/>
</svg>