<svg width="115" height="50" viewBox="0 0 115 50" xmlns="http://www.w3.org/2000/svg">
<rect fill="none" width="115" height="50"/>  
<path fill="#38D9F6" d="M110.083,25c0,9.527-7.611,17.25-17,17.25H21.917c-9.389,0-17-7.723-17-17.25l0,0

						c0-9.527,7.611-17.25,17-17.25h71.167C102.472,7.75,110.083,15.473,110.083,25L110.083,25z"/>
<path fill="#FFFFFF" d="M30.683,25.902c-2.037-0.735-3.549-2.184-4.347-3.969

							c-0.84,2.058-2.394,3.696-4.578,4.494l-1.155-1.722c2.982-1.029,4.599-3.612,4.599-6.342v-1.869h2.184v2.037

							c0,2.436,1.617,4.746,4.431,5.67L30.683,25.902z M35.807,30.921c0,2.247-2.394,3.57-6.321,3.57

							c-3.906,0-6.321-1.323-6.321-3.57c0-2.226,2.415-3.549,6.321-3.549C33.413,27.373,35.807,28.695,35.807,30.921z

							 M33.665,30.921c0-1.176-1.533-1.848-4.179-1.848s-4.179,0.672-4.179,1.848c0,1.218,1.533,1.869,4.179,1.869

							S33.665,32.14,33.665,30.921z M38.285,20.211v1.785h-2.688v4.914h-2.163V15.508h2.163v4.704H38.285z"/>

						<path fill="#FFFFFF" d="M50.486,26.428c-2.163-0.798-3.717-2.352-4.536-4.326

							c-0.861,2.121-2.436,3.843-4.662,4.683l-1.113-1.743c2.982-1.092,4.641-3.801,4.641-6.573v-1.89h2.205v1.89

							c0,2.688,1.659,5.229,4.578,6.237L50.486,26.428z M56.282,32.371v1.764H43.346v-6.027h2.184v4.263H56.282z M55.736,29.41

							h-2.163V15.55h2.163V29.41z"/>

						<path fill="#FFFFFF" d="M62.183,28.191c2.185-0.021,3.906-0.126,5.859-0.525l0.188,1.785

							c-2.289,0.441-4.242,0.525-6.908,0.525h-1.26V17.775h7.014v1.764h-4.894V28.191z M75.602,15.508v18.963h-2.058v-9.702h-2.247

							v8.778H69.26v-17.64h2.037v7.098h2.247v-7.497H75.602z"/>

						<path fill="#FFFFFF" d="M88.811,17.523c0,5.649-2.268,10.437-8.778,13.587l-1.154-1.722

							c4.977-2.394,7.329-5.733,7.707-10.101h-6.763v-1.764H88.811z M94.397,15.529v18.963h-2.163V15.529H94.397z"/>


</svg>