<svg width="115" height="50" viewBox="0 0 115 50" xmlns="http://www.w3.org/2000/svg">
<rect fill="none" width="115" height="50"/>  
<path fill="#FFCC00" d="M110.084,25c0,9.527-7.611,17.25-17,17.25H21.917c-9.389,0-17-7.723-17-17.25l0,0

						c0-9.526,7.611-17.25,17-17.25h71.167C102.473,7.75,110.084,15.474,110.084,25L110.084,25z"/>
<path fill="#FFFFFF" d="M49.258,26.407h-8.946v-9.513h2.163v2.961h4.641v-2.961h2.142V26.407z

							 M44.638,32.371h10.584v1.764H42.454v-6.006h2.184V32.371z M47.116,21.535h-4.641v3.129h4.641V21.535z M57.154,21.115v1.785

							h-2.688v6.573h-2.163V15.55h2.163v5.565H57.154z"/>

						<path fill="#FFFFFF" d="M61.774,28.401c2.583-0.021,4.809-0.126,7.413-0.525l0.168,1.785

							c-2.877,0.462-5.313,0.525-8.253,0.525h-1.449v-7.707h6.194v-3.57h-6.236v-1.743h8.357v7.056h-6.194V28.401z M74.689,15.487

							v19.026h-2.163v-7.875h-3.57v-1.764h3.57v-3.402h-3.465v-1.764h3.465v-4.221H74.689z"/>

</svg>