<svg width="105" height="105" viewBox="0 0 105 105" xmlns="http://www.w3.org/2000/svg">
<rect fill="none" width="105" height="105"/> 
<path fill="#AEAEAE" d="M4.74,52.5c0,25.245,20.538,45.781,45.782,45.781c25.246,0,45.783-20.537,45.783-45.781

						S75.766,6.718,50.521,6.718C25.277,6.718,4.74,27.255,4.74,52.5z M5.74,52.5c0-24.693,20.089-44.782,44.782-44.782

						S95.305,27.807,95.305,52.5c0,24.693-20.091,44.781-44.784,44.781S5.74,77.193,5.74,52.5z"/>

					<path fill="#AEAEAE" d="M39,45.38c-1.561,3.93-5.434,6.633-10.923,7.97l-0.752-1.644c6.13-1.449,9.809-4.57,10.171-8.723

						h-8.889v-1.672h11.119c0,0.836-0.084,1.645-0.251,2.425h5.852V40.03h2.034v12.79h-2.034v-2.703h-6.716v-1.616h6.716V45.38H39z

						 M48.251,63.047v1.672H31.448v-6.353h13.905v-2.703H31.392v-1.672h15.967v5.963H33.454v3.093H48.251z"/>

					<path fill="#AEAEAE" d="M59.788,46.913c0,4.57,1.95,8.61,5.435,10.394l-1.227,1.59c-2.48-1.365-4.234-3.847-5.127-6.912

						c-0.836,3.511-2.646,6.242-5.268,7.775l-1.282-1.563c3.567-1.949,5.518-6.185,5.518-11.284v-2.174h-4.96v-1.7h11.593v1.7

						h-4.682L59.788,46.913L59.788,46.913z M73.721,40.03v24.941H71.77v-13.07h-3.511v11.814h-1.923v-23.1h1.923v9.558h3.511V40.03

						H73.721z"/>
</svg>