<svg width="130" height="60" viewBox="0 0 130 60" xmlns="http://www.w3.org/2000/svg">
<rect fill="none" width="130" height="60"/>  
<path fill="#FFFFFF" d="M124.167,52.667c0,1.656-1.369,3-3.061,3H8.894c-1.689,0-3.061-1.344-3.061-3V7.333

						c0-1.656,1.371-3,3.061-3h112.214c1.689,0,3.061,1.344,3.061,3v45.333H124.167z"/>

					<path fill="#AEAEAE" d="M8.894,4.083c-1.826,0-3.311,1.458-3.311,3.25v45.333c0,1.792,1.484,3.25,3.311,3.25h112.214

						c1.824,0,3.311-1.458,3.311-3.25V7.333c0-1.792-1.484-3.25-3.311-3.25H8.894z M6.083,52.667V7.333

						c0-1.516,1.261-2.75,2.811-2.75h112.214c1.549,0,2.811,1.234,2.811,2.75v45.333c0,1.518-1.262,2.75-2.811,2.75H8.894

						C7.344,55.417,6.083,54.184,6.083,52.667z"/>


						<path fill="#AEAEAE" d="M64.461,29.628v2.016H44.877v-2.016h8.544v-2.16h-6.12v-7.344h14.76v1.968H49.749

							v3.384h12.456v1.992h-6.312v2.16H64.461z M62.061,36.9c0,2.52-2.808,3.96-7.464,3.96c-4.632,0-7.464-1.44-7.464-3.96

							c0-2.496,2.832-3.936,7.464-3.936C59.253,32.964,62.061,34.404,62.061,36.9z M59.565,36.9c0-1.32-1.8-2.04-4.968-2.04

							s-4.944,0.72-4.944,2.04c0,1.344,1.776,2.04,4.944,2.04S59.565,38.244,59.565,36.9z"/>

						<path fill="#AEAEAE" d="M67.389,34.236c3.888,0,9.288-0.024,13.944-0.72l0.168,1.8

							c-4.775,0.912-9.959,0.96-13.8,0.96L67.389,34.236z M80.181,25.884c0,3.072-2.521,5.208-5.904,5.208s-5.88-2.136-5.88-5.208

							c0-3.072,2.496-5.208,5.88-5.208S80.181,22.812,80.181,25.884z M70.821,25.884c0,1.872,1.464,3.096,3.456,3.096

							c2.016,0,3.479-1.224,3.479-3.096c0-1.896-1.463-3.096-3.479-3.096C72.285,22.788,70.821,23.988,70.821,25.884z M85.125,19.14

							v21.72h-2.495V19.14H85.125z"/>

</svg>