<svg width="105" height="105" viewBox="0 0 105 105" xmlns="http://www.w3.org/2000/svg">
<rect fill="none" width="105" height="105"/> 

						<path fill="#0066FF" d="M4.74,52.5c0,25.245,20.538,45.782,45.782,45.782

							c25.245,0,45.782-20.538,45.782-45.782S75.766,6.718,50.521,6.718C25.277,6.718,4.74,27.255,4.74,52.5z M5.74,52.5

							c0-24.693,20.089-44.782,44.782-44.782S95.304,27.807,95.304,52.5S75.214,97.282,50.521,97.282S5.74,77.193,5.74,52.5z"/>


						<circle fill="#FFFFFF" cx="86.289" cy="77.993" r="14.394"/> 

						<path fill="#0066FF" d="M85.917,61.98c-8.744,0-15.841,7.097-15.841,15.841c0,8.744,7.097,15.841,15.841,15.841

							c8.744,0,15.841-7.097,15.841-15.841C101.758,69.078,94.66,61.98,85.917,61.98z M82.749,85.743l-7.921-7.921l2.234-2.234

							l5.687,5.671l12.023-12.023l2.233,2.25L82.749,85.743z"/>

						<path fill="#0066FF" d="M49.937,52.884v1.708H27.285v-1.708h10.304v-2.996h-7.42V41.6h16.94v1.708H32.185

							v4.9h15.092v1.68h-7.644v2.996H49.937z M47.165,60.976c0,2.884-3.22,4.508-8.568,4.508c-5.348,0-8.54-1.624-8.54-4.508

							c0-2.856,3.192-4.508,8.54-4.508C43.945,56.468,47.165,58.12,47.165,60.976z M45.093,60.976c0-1.82-2.436-2.856-6.496-2.856

							c-4.032,0-6.496,1.036-6.496,2.856c0,1.848,2.464,2.884,6.496,2.884C42.657,63.86,45.093,62.824,45.093,60.976z"/>

						<path fill="#0066FF" d="M53.213,58.232c4.592,0,10.948,0,16.408-0.868l0.168,1.512

							c-5.628,1.064-11.76,1.092-16.268,1.092L53.213,58.232z M67.856,48.152c0,3.472-2.772,5.824-6.664,5.824

							c-3.892,0-6.664-2.352-6.664-5.824s2.772-5.824,6.664-5.824C65.084,42.328,67.856,44.68,67.856,48.152z M56.489,48.152

							c0,2.38,1.988,4.088,4.704,4.088c2.716,0,4.676-1.708,4.676-4.088s-1.96-4.06-4.676-4.06

							C58.477,44.092,56.489,45.772,56.489,48.152z M73.345,40.452V65.54h-2.016V40.452H73.345z"/>

</svg>