<svg width="130" height="60" viewBox="0 0 130 60" xmlns="http://www.w3.org/2000/svg">
<rect fill="none" width="130" height="60"/>  
<path fill="#FFFFFF" enable-background="new" d="M124.167,52.666c0,1.657-1.37,3-3.061,3H8.894

								c-1.69,0-3.061-1.343-3.061-3V7.333c0-1.656,1.371-3,3.061-3h112.213c1.69,0,3.061,1.344,3.061,3V52.666z"/>

							<path fill="#0066FF" d="M8.894,4.083c-1.826,0-3.311,1.458-3.311,3.25v45.333

								c0,1.792,1.485,3.25,3.311,3.25h112.213c1.825,0,3.311-1.458,3.311-3.25V7.333c0-1.792-1.485-3.25-3.311-3.25H8.894z

								 M6.083,52.666V7.333c0-1.516,1.261-2.75,2.811-2.75h112.213c1.55,0,2.811,1.234,2.811,2.75v45.333

								c0,1.517-1.261,2.75-2.811,2.75H8.894C7.344,55.416,6.083,54.183,6.083,52.666z"/>
<circle fill="#FFFFFF" cx="39.854" cy="30.045" r="9.086"/> 

							<path fill="#0066FF" d="M39.618,19.937c-5.52,0-10,4.479-10,10c0,5.52,4.48,10.001,10,10.001s10-4.481,10-10.001

								C49.618,24.418,45.138,19.937,39.618,19.937z M37.618,34.938l-5-4.999l1.41-1.412l3.59,3.58l7.59-7.59l1.41,1.421

								L37.618,34.938z"/>
<path fill="#0066FF" d="M79.214,29.338v2.017H59.63v-2.017h8.544v-2.16h-6.12v-7.344h14.76v1.968H64.502

								v3.385h12.456v1.991h-6.312v2.16H79.214z M76.814,36.61c0,2.52-2.808,3.96-7.464,3.96c-4.632,0-7.464-1.44-7.464-3.96

								c0-2.496,2.832-3.937,7.464-3.937C74.006,32.674,76.814,34.114,76.814,36.61z M74.318,36.61c0-1.32-1.8-2.04-4.968-2.04

								c-3.168,0-4.944,0.72-4.944,2.04c0,1.344,1.776,2.04,4.944,2.04C72.519,38.65,74.318,37.954,74.318,36.61z"/>

							<path fill="#0066FF" d="M81.782,33.946c3.888,0,9.288-0.024,13.944-0.72l0.168,1.8

								c-4.775,0.912-9.959,0.96-13.8,0.96L81.782,33.946z M94.575,25.594c0,3.072-2.52,5.208-5.904,5.208

								c-3.384,0-5.88-2.136-5.88-5.208c0-3.071,2.496-5.208,5.88-5.208C92.055,20.386,94.575,22.522,94.575,25.594z M85.214,25.594

								c0,1.872,1.464,3.097,3.456,3.097c2.016,0,3.48-1.225,3.48-3.097c0-1.896-1.464-3.096-3.48-3.096

								C86.678,22.498,85.214,23.698,85.214,25.594z M99.518,18.851v21.72h-2.495v-21.72H99.518z"/>

</svg>