<svg width="115" height="50" viewBox="0 0 115 50" xmlns="http://www.w3.org/2000/svg">
<rect fill="none" width="115" height="50"/>  
<path fill="#AED1D7" d="M110.084,25c0,9.527-7.611,17.25-17,17.25H21.917c-9.389,0-17-7.723-17-17.25l0,0

						c0-9.526,7.611-17.25,17-17.25h71.167C102.473,7.75,110.084,15.474,110.084,25L110.084,25z"/>
<path fill="#FFFFFF" d="M29.917,25.892c-2.037-0.735-3.549-2.184-4.347-3.969

							c-0.84,2.058-2.394,3.696-4.578,4.494l-1.155-1.722c2.982-1.029,4.599-3.612,4.599-6.342v-1.869h2.184v2.037

							c0,2.436,1.617,4.746,4.431,5.67L29.917,25.892z M35.042,30.911c0,2.247-2.394,3.57-6.321,3.57

							c-3.906,0-6.321-1.323-6.321-3.57c0-2.226,2.415-3.549,6.321-3.549C32.647,27.362,35.042,28.685,35.042,30.911z

							 M32.899,30.911c0-1.176-1.533-1.848-4.179-1.848s-4.179,0.672-4.179,1.848c0,1.218,1.533,1.869,4.179,1.869

							S32.899,32.129,32.899,30.911z M37.52,20.201v1.785h-2.688V26.9h-2.163V15.498h2.163v4.704H37.52z"/>

						<path fill="#FFFFFF" d="M49.721,26.417c-2.163-0.798-3.718-2.352-4.536-4.326

							c-0.861,2.121-2.436,3.843-4.662,4.683l-1.113-1.743c2.982-1.092,4.641-3.801,4.641-6.573v-1.89h2.205v1.89

							c0,2.688,1.659,5.229,4.578,6.237L49.721,26.417z M55.517,32.36v1.764H42.581v-6.027h2.184v4.263H55.517z M54.971,29.399

							h-2.163V15.54h2.163V29.399z"/>

						<path fill="#FFFFFF" d="M71.1,27.089c-1.66,0.294-3.402,0.504-5.082,0.588v6.258h-2.164v-6.132

							c-1.764,0.063-3.422,0.084-4.914,0.084l-0.271-1.785c3.527,0,8.23-0.042,12.305-0.609L71.1,27.089z M59.443,23.33

							c2.773-0.609,4.391-2.247,4.41-4.074h-3.969v-1.701h3.949v-1.995h2.184v1.995h3.969v1.701h-3.969

							c0.021,1.722,1.617,3.213,4.346,3.78l-0.859,1.68c-2.164-0.462-3.697-1.512-4.537-2.877c-0.818,1.512-2.395,2.646-4.641,3.15

							L59.443,23.33z M74.354,15.519v18.984h-2.162V15.519H74.354z"/>

						<path fill="#FFFFFF" d="M95.164,30.344v1.785H77.986v-1.785H85.4v-4.431h2.162v4.431H95.164z M93.527,26.292

							c-3.109-0.609-5.797-2.499-7.016-5.019c-1.26,2.52-3.947,4.41-7.035,5.019l-0.924-1.806c3.76-0.63,6.805-3.465,6.805-6.384

							v-1.428h2.289v1.428c0,2.94,3.045,5.754,6.783,6.384L93.527,26.292z"/>

</svg>