<svg width="130" height="60" viewBox="0 0 130 60" xmlns="http://www.w3.org/2000/svg">
<rect fill="none" width="130" height="60"/>  
<path fill="#8E8E8E" enable-background="new    " d="M124.167,52.667c0,1.657-1.37,3-3.061,3H8.894

							c-1.69,0-3.061-1.343-3.061-3V7.333c0-1.657,1.371-3,3.061-3h112.213c1.69,0,3.061,1.343,3.061,3V52.667z"/>

						<path fill="#8E8E8E" d="M8.894,4.083c-1.826,0-3.311,1.458-3.311,3.25v45.333c0,1.792,1.485,3.25,3.311,3.25

							h112.213c1.825,0,3.311-1.458,3.311-3.25V7.333c0-1.792-1.485-3.25-3.311-3.25H8.894z M6.083,52.667V7.333

							c0-1.516,1.261-2.75,2.811-2.75h112.213c1.55,0,2.811,1.234,2.811,2.75v45.333c0,1.517-1.261,2.75-2.811,2.75H8.894

							C7.344,55.417,6.083,54.183,6.083,52.667z"/>
<path fill="#FFFFFF" d="M44.265,21.444c0,6.456-2.592,11.928-10.032,15.528l-1.32-1.969

							c5.688-2.735,8.376-6.552,8.808-11.544h-7.728v-2.016H44.265z M50.648,19.164v21.672h-2.472V19.164H50.648z"/>

						<path fill="#FFFFFF" d="M60.873,31.452c-3.264,0-5.76-2.256-5.76-5.424s2.496-5.4,5.76-5.4

							c3.288,0,5.784,2.232,5.784,5.4S64.161,31.452,60.873,31.452z M60.873,29.316c1.896,0,3.36-1.296,3.36-3.288

							c0-1.968-1.464-3.265-3.36-3.265s-3.336,1.297-3.336,3.265C57.537,28.021,58.977,29.316,60.873,29.316z M60.537,38.412h12.096

							v2.017H58.041V33.42h2.496V38.412z M74.84,25.596v2.04h-3.071v7.417h-2.473V19.164h2.473v6.432H74.84z"/>

						<path fill="#FFFFFF" d="M84.512,25.452c0,3.36,2.137,7.2,5.426,8.76l-1.369,1.944

							c-2.424-1.152-4.271-3.552-5.256-6.288c-0.959,3.024-2.881,5.616-5.375,6.84l-1.416-1.968c3.312-1.584,5.52-5.688,5.52-9.288

							v-2.088h-4.728v-2.04h11.783v2.04h-4.584V25.452z M97.088,29.748h-3.383v11.088h-2.473V19.164h2.473v8.544h3.383V29.748z"/>

</svg>