<svg width="115" height="50" viewBox="0 0 115 50" xmlns="http://www.w3.org/2000/svg">
<rect fill="none" width="115" height="50"/>  
<path fill="#E5F4FF" d="M110.083,25c0,9.527-7.61,17.25-17,17.25H21.917c-9.389,0-17-7.723-17-17.25l0,0

						c0-9.526,7.611-17.25,17-17.25h71.167C102.473,7.75,110.083,15.473,110.083,25L110.083,25z"/>

						<path fill="#4284E6" d="M31.156,26.599c-1.951-0.724-3.379-2.192-4.144-4.023

							c-0.805,2.032-2.313,3.641-4.405,4.445L21.5,25.412c2.836-1.005,4.406-3.561,4.406-6.256v-2.113h2.112v2.153

							c0,2.454,1.529,4.809,4.245,5.794L31.156,26.599z M37.011,32.071v1.689H24.759v-5.732h2.092v4.043H37.011z M34.516,21.731

							h-3.682v-1.71h3.682v-4.084h2.072v13.519h-2.072V21.731z"/>

						<path fill="#4284E6" d="M48.82,20.021c-1.127,2.776-3.803,4.627-7.806,5.532l-0.725-1.69

							c4.305-0.925,6.539-2.917,6.82-5.451h-5.834v-1.67h8.127c0,0.584-0.04,1.146-0.141,1.67h3.762v-2.475h2.072v9.214h-2.072V23.5

							h-4.446v-1.608h4.446v-1.871H48.82z M55.599,32.272v1.67H43.308v-4.889h9.716v-1.508h-9.756v-1.65h11.829v4.707h-9.717v1.67

							H55.599z"/>

						<path fill="#4284E6" d="M67.871,17.848c0,5.271-2.254,9.938-8.188,12.936l-1.146-1.589

							c4.446-2.273,6.839-5.473,7.262-9.657h-6.356v-1.689H67.871z M75.375,24.829h-2.756v9.254h-2.072V15.917h2.072v7.182h2.756

							V24.829z"/>

						<path fill="#4284E6" d="M93.5,24.265v1.69H77.064v-1.69H93.5z M91.488,30.723c0,2.112-2.354,3.34-6.257,3.34

							c-3.882,0-6.256-1.228-6.256-3.34c0-2.132,2.374-3.359,6.256-3.359C89.135,27.364,91.488,28.591,91.488,30.723z M91.63,22.435

							H79.218v-6.156h2.071v4.486H91.63V22.435z M89.396,30.723c0-1.147-1.509-1.729-4.165-1.729c-2.654,0-4.144,0.582-4.144,1.729

							c0,1.106,1.489,1.729,4.144,1.729C87.888,32.453,89.396,31.83,89.396,30.723z"/>


</svg>