<svg width="115" height="50" viewBox="0 0 115 50" xmlns="http://www.w3.org/2000/svg">
<rect fill="none" width="115" height="50"/>  
<path fill="#E5F4FF" d="M110.083,25c0,9.527-7.61,17.25-17,17.25H21.917c-9.389,0-17-7.723-17-17.25l0,0

						c0-9.526,7.611-17.25,17-17.25h71.167C102.473,7.75,110.083,15.474,110.083,25L110.083,25z"/>

						<path fill="#4284E6" d="M37.976,29.375h-7.222v4.748h-2.072v-4.748H21.5v-1.669h16.477V29.375z

							 M37.03,19.579H22.325V17.93h6.357v-2.053h2.072v2.053h6.276V19.579z M29.728,20.464c3.782,0,6.055,1.106,6.055,3.078

							s-2.273,3.077-6.055,3.077c-3.783,0-6.056-1.105-6.056-3.077S25.945,20.464,29.728,20.464z M29.728,22.032

							c-2.535,0-3.903,0.524-3.903,1.51s1.368,1.529,3.903,1.529c2.535,0,3.882-0.544,3.882-1.529S32.263,22.032,29.728,22.032z"/>

						<path fill="#4284E6" d="M48.799,20.021c-1.127,2.776-3.802,4.627-7.806,5.532l-0.724-1.69

							c4.305-0.925,6.538-2.917,6.82-5.451h-5.834v-1.67h8.127c0,0.584-0.041,1.146-0.141,1.67h3.762v-2.475h2.072v9.214h-2.072

							v-1.65h-4.445v-1.608h4.445v-1.871H48.799z M55.579,32.272v1.67H43.287v-4.889h9.716v-1.508h-9.756v-1.65h11.829v4.707h-9.717

							v1.67H55.579z"/>

						<path fill="#4284E6" d="M69.981,24.125c-3.601,0.583-7.765,0.685-10.923,0.704l-0.222-1.689

							c0.665,0,1.389,0,2.133-0.021v-4.385h-1.65v-1.65h9.758v1.65h-1.61v4.144c0.825-0.061,1.63-0.141,2.414-0.241L69.981,24.125z

							 M74.146,32.313v1.63H61.533v-4.728h9.957v-1.468h-9.979v-1.61h12.031v4.587h-9.938v1.589H74.146z M62.961,23.079

							c0.805-0.021,1.669-0.04,2.494-0.08v-4.265h-2.494V23.079z M73.543,25.313H71.45v-9.396h2.093V25.313z"/>

						<path fill="#4284E6" d="M93.5,30.181v1.689H77.044v-1.689h3.842v-4.728

							c-1.448-0.805-2.313-2.112-2.313-3.722c0-2.897,2.796-4.748,6.679-4.748c3.863,0,6.68,1.851,6.68,4.748

							c0,1.609-0.865,2.896-2.313,3.722v4.728H93.5z M80.584,21.731c0,1.931,1.911,3.139,4.667,3.139

							c2.736,0,4.647-1.208,4.647-3.139c0-1.911-1.911-3.118-4.647-3.118C82.495,18.613,80.584,19.82,80.584,21.731z M82.958,30.181

							h4.587v-3.964c-0.704,0.182-1.489,0.263-2.294,0.263s-1.59-0.081-2.293-0.242V30.181z"/>

</svg>