<svg width="115" height="50" viewBox="0 0 115 50" xmlns="http://www.w3.org/2000/svg">
<rect fill="none" width="115" height="50"/>  
<path fill="#FFECE5" d="M110.083,25c0,9.527-7.611,17.25-17,17.25H21.917c-9.389,0-17-7.723-17-17.25l0,0

						c0-9.526,7.611-17.25,17-17.25h71.166C102.472,7.75,110.083,15.474,110.083,25L110.083,25z"/>

						<path fill="#FF5E0F" d="M30.061,19.993c-1.131,2.786-3.816,4.644-7.834,5.553L21.5,23.849

							c4.321-0.929,6.562-2.928,6.845-5.471h-5.855v-1.676h8.157c0,0.586-0.041,1.15-0.141,1.676h3.775v-2.483h2.08v9.247h-2.08

							v-1.656h-4.462V21.87h4.462v-1.877H30.061z M36.865,32.289v1.676H24.528v-4.907h9.752v-1.513h-9.792v-1.656H36.36v4.725

							h-9.752v1.676H36.865z"/>

						<path fill="#FF5E0F" d="M45.385,20.619c0,3.291,1.15,6.278,3.795,7.652l-1.211,1.594

							c-1.736-0.948-2.867-2.604-3.533-4.623c-0.626,2.322-1.797,4.18-3.594,5.25l-1.271-1.556c2.645-1.534,3.795-4.704,3.795-8.317

							v-1.011h-3.291v-1.715h8.359v1.715h-3.049V20.619z M55.48,15.874v18.252h-1.979v-9.328h-1.999v8.48h-1.958V16.217h1.958v6.865

							h1.999v-7.208H55.48z"/>

						<path fill="#FF5E0F" d="M69.895,24.111c-3.612,0.585-7.793,0.687-10.962,0.706l-0.222-1.695

							c0.667,0,1.394,0,2.141-0.02v-4.401h-1.657v-1.656h9.793v1.656h-1.617v4.159c0.828-0.062,1.636-0.142,2.424-0.242

							L69.895,24.111z M74.075,32.329v1.636H61.416V29.22h9.994v-1.474H61.396v-1.615h12.075v4.604h-9.976v1.595H74.075z

							 M62.85,23.063c0.807-0.021,1.675-0.041,2.503-0.081v-4.28H62.85V23.063z M73.471,25.304h-2.102v-9.43h2.102V25.304z"/>

						<path fill="#FF5E0F" d="M93.5,30.189v1.695H76.983v-1.695h3.855v-4.745c-1.453-0.808-2.321-2.12-2.321-3.735

							c0-2.908,2.806-4.765,6.702-4.765c3.878,0,6.704,1.856,6.704,4.765c0,1.615-0.867,2.907-2.321,3.735v4.745H93.5z

							 M80.537,21.709c0,1.938,1.917,3.15,4.683,3.15c2.748,0,4.665-1.212,4.665-3.15c0-1.918-1.917-3.129-4.665-3.129

							C82.454,18.58,80.537,19.791,80.537,21.709z M82.92,30.189h4.603v-3.979c-0.706,0.183-1.495,0.264-2.303,0.264

							s-1.594-0.081-2.3-0.243V30.189z"/>

</svg>