<svg width="130" height="60" viewBox="0 0 130 60" xmlns="http://www.w3.org/2000/svg">
<rect fill="none" width="130" height="60"/>  
<path fill="#FFFFFF" enable-background="new" d="M124.167,52.666c0,1.657-1.37,3-3.061,3H8.894

								c-1.69,0-3.061-1.343-3.061-3V7.333c0-1.656,1.371-3,3.061-3h112.213c1.69,0,3.061,1.344,3.061,3V52.666z"/>

							<path fill="#0066FF" d="M8.894,4.083c-1.826,0-3.311,1.458-3.311,3.25v45.333

								c0,1.792,1.485,3.25,3.311,3.25h112.213c1.825,0,3.311-1.458,3.311-3.25V7.333c0-1.792-1.485-3.25-3.311-3.25H8.894z

								 M6.083,52.666V7.333c0-1.516,1.261-2.75,2.811-2.75h112.213c1.55,0,2.811,1.234,2.811,2.75v45.333

								c0,1.517-1.261,2.75-2.811,2.75H8.894C7.344,55.416,6.083,54.183,6.083,52.666z"/>

<circle fill="#FFFFFF" cx="39.854" cy="30.045" r="9.086"/> 

								<path fill="#0066FF" d="M39.618,19.937c-5.52,0-10,4.479-10,10c0,5.52,4.48,10.001,10,10.001s10-4.481,10-10.001

									C49.618,24.418,45.138,19.937,39.618,19.937z M37.618,34.938l-5-4.999l1.41-1.412l3.59,3.58l7.59-7.59l1.41,1.421

									L37.618,34.938z"/>
<path fill="#0066FF" d="M70.166,24.048c-1.344,3.312-4.536,5.52-9.312,6.6l-0.864-2.016

									c5.136-1.104,7.8-3.48,8.136-6.504h-6.96v-1.992h9.696c0,0.696-0.048,1.368-0.168,1.992h4.488v-2.952h2.472v10.992h-2.472

									v-1.969h-5.304v-1.92h5.304v-2.231H70.166z M78.254,38.664v1.991H63.589v-5.832h11.592v-1.8h-11.64v-1.968h14.112v5.616

									H66.062v1.992H78.254z"/>

								<path fill="#0066FF" d="M88.382,24.792c0,3.912,1.368,7.464,4.512,9.096l-1.44,1.896

									c-2.064-1.129-3.408-3.097-4.2-5.496c-0.744,2.76-2.136,4.968-4.272,6.239L81.47,34.68c3.144-1.824,4.512-5.592,4.512-9.888

									v-1.2H82.07v-2.04h9.936v2.04h-3.624V24.792z M100.382,19.151v21.696H98.03V29.76h-2.376v10.08h-2.328V19.56h2.328v8.16

									h2.376v-8.568H100.382z"/>

</svg>