<svg width="130" height="60" viewBox="0 0 130 60" xmlns="http://www.w3.org/2000/svg">
<rect fill="none" width="130" height="60"/>  
<path fill="#FFFFFF" enable-background="new    " d="M124.167,52.666c0,1.657-1.37,3-3.061,3H8.894

								c-1.69,0-3.061-1.343-3.061-3V7.333c0-1.656,1.371-3,3.061-3h112.213c1.69,0,3.061,1.344,3.061,3V52.666z"/>

							<path fill="#C57B32" d="M8.894,4.083c-1.826,0-3.311,1.458-3.311,3.25v45.333

								c0,1.792,1.485,3.25,3.311,3.25h112.213c1.825,0,3.311-1.458,3.311-3.25V7.333c0-1.792-1.485-3.25-3.311-3.25H8.894z

								 M6.083,52.666V7.333c0-1.516,1.261-2.75,2.811-2.75h112.213c1.55,0,2.811,1.234,2.811,2.75v45.333

								c0,1.517-1.261,2.75-2.811,2.75H8.894C7.344,55.416,6.083,54.183,6.083,52.666z"/>
<circle fill="#FFFFFF" cx="39.854" cy="30.045" r="9.086"/> 

							<path fill="#C57B32" d="M39.618,19.937c-5.52,0-10,4.479-10,10c0,5.52,4.48,10.001,10,10.001s10-4.481,10-10.001

								C49.618,24.418,45.138,19.937,39.618,19.937z M37.618,34.938l-5-4.999l1.41-1.412l3.59,3.58l7.59-7.59l1.41,1.421

								L37.618,34.938z"/>
<path fill="#C57B32" d="M70.574,31.307H60.35V20.435h2.472v3.384h5.304v-3.384h2.448V31.307z

								 M65.294,38.122h12.096v2.017H62.798v-6.864h2.496V38.122z M68.126,25.738h-5.304v3.576h5.304V25.738z M79.599,25.258v2.04

								h-3.072v7.513h-2.472V18.898h2.472v6.359H79.599z"/>

							<path fill="#C57B32" d="M84.831,33.347c2.496-0.024,4.464-0.145,6.696-0.601l0.216,2.04

								c-2.616,0.504-4.848,0.6-7.896,0.6h-1.44V21.442h8.016v2.016h-5.592V33.347z M100.167,18.851v21.672h-2.352V29.435h-2.568

								v10.031h-2.328v-20.16h2.328v8.112h2.568v-8.567H100.167z"/>

</svg>