<svg width="130" height="60" viewBox="0 0 130 60" xmlns="http://www.w3.org/2000/svg">
<path fill="#FFFFFF" d="M124.166,52.667c0,1.656-1.369,3-3.061,3H8.894c-1.689,0-3.061-1.344-3.061-3V7.333

						c0-1.656,1.371-3,3.061-3h112.213c1.689,0,3.061,1.344,3.061,3v45.333H124.166z"/>

					<path fill="#AEAEAE" d="M8.894,4.083c-1.826,0-3.311,1.458-3.311,3.25v45.333c0,1.792,1.484,3.25,3.311,3.25h112.213

						c1.824,0,3.311-1.458,3.311-3.25V7.333c0-1.792-1.484-3.25-3.311-3.25H8.894z M6.083,52.667V7.333

						c0-1.516,1.261-2.75,2.811-2.75h112.213c1.549,0,2.811,1.234,2.811,2.75v45.333c0,1.518-1.262,2.75-2.811,2.75H8.894

						C7.344,55.417,6.083,54.184,6.083,52.667z"/>


						<path fill="#AEAEAE" d="M55.401,31.608H45.177V20.736h2.472v3.384h5.304v-3.384h2.448V31.608z

							 M50.121,38.424h12.096v2.016H47.625v-6.864h2.496V38.424z M52.953,26.04h-5.304v3.576h5.304V26.04z M64.425,25.56v2.04

							h-3.072v7.512h-2.472V19.2h2.472v6.36H64.425z"/>

						<path fill="#AEAEAE" d="M70.065,33.888c2.952-0.024,5.496-0.144,8.472-0.6l0.191,2.04

							c-3.287,0.528-6.071,0.6-9.431,0.6h-1.656V27.12h7.08v-4.08h-7.128v-1.992h9.551v8.064h-7.079V33.888z M84.824,19.128v21.744

							h-2.471v-9h-4.08v-2.016h4.08v-3.888h-3.961v-2.016h3.961v-4.824H84.824z"/>



</svg>