<svg width="72" height="72" viewBox="0 0 72 72" xmlns="http://www.w3.org/2000/svg">
<rect fill="none" width="72" height="72"/> 
<rect x="8.005" y="19.378" fill="#FFFFFF" width="44.438" height="44.438"/> 

						<rect x="9.041" y="20.394" fill="#B6E4F9" width="43.027" height="15.364"/> 

						<path fill="#2B2C5D" d="M6.947,18.32v46.555h46.555V18.32H6.947z M51.387,20.436v14.462H9.063V20.436H51.387z M9.063,62.76

							V37.014h42.324V62.76H9.063z"/>

						<rect x="19.556" y="8.183" fill="#FFFFFF" width="44.439" height="44.439"/> 

						<rect x="20.591" y="9.2" fill="#B6E4F9" width="43.029" height="15.363"/> 

						<path fill="#2B2C5D" d="M18.498,7.125V53.68h46.555V7.125H18.498z M62.938,9.241v14.462H20.614V9.241H62.938z M20.614,51.564

							V25.819h42.324v25.746H20.614L20.614,51.564z"/>


							<rect x="50.625" y="34.313" fill="#2B2C5D" width="2.5" height="7.75"/> 

							<rect x="48.084" y="42.063" fill="#2B2C5D" width="2.5" height="2.5"/> 

							<rect x="48.084" y="31.833" fill="#2B2C5D" width="2.5" height="2.5"/> 

								<rect x="53.125" y="36.938" fill="#2B2C5D" width="2.5" height="2.5"/> 

								<rect x="27.5" y="36.938" fill="#2B2C5D" width="23.125" height="2.5"/> 

</svg>