<svg width="100" height="50" viewBox="0 0 100 50" xmlns="http://www.w3.org/2000/svg">
<rect fill="none" width="100" height="50"/>  
					<path fill="#6A6A6A" d="M42.274,17.314h2.016l1.617,8.377c0.294,1.658,0.609,3.318,0.903,4.978h0.084

						c0.357-1.657,0.735-3.317,1.113-4.978l2.122-8.377h1.764l2.164,8.377c0.377,1.64,0.734,3.297,1.092,4.978h0.104

						c0.294-1.681,0.588-3.338,0.882-4.978l1.616-8.377h1.869l-3.19,15.392h-2.332l-2.33-9.282c-0.271-1.218-0.504-2.33-0.756-3.507

						h-0.084c-0.253,1.177-0.525,2.289-0.777,3.507l-2.29,9.282h-2.31L42.274,17.314z"/>

					<path fill="#6A6A6A" d="M62.287,17.314h4.578c3.129,0,5.292,1.05,5.292,3.759c0,1.533-0.818,2.878-2.269,3.339v0.105

						c1.848,0.357,3.148,1.574,3.148,3.674c0,3.022-2.395,4.515-5.838,4.515h-4.914L62.287,17.314L62.287,17.314z M66.529,23.866

						c2.646,0,3.717-0.987,3.717-2.541c0-1.806-1.238-2.478-3.633-2.478H64.24v5.019H66.529z M66.93,31.154

						c2.646,0,4.199-0.945,4.199-3.025c0-1.91-1.513-2.771-4.199-2.771H64.24v5.796H66.93L66.93,31.154z"/>

					<path fill="#6A6A6A" d="M74.656,30.691l1.154-1.322c1.111,1.154,2.666,1.91,4.264,1.91c2.016,0,3.232-1.008,3.232-2.521

						c0-1.574-1.111-2.078-2.563-2.729l-2.229-0.965c-1.428-0.609-3.129-1.702-3.129-3.949c0-2.373,2.061-4.095,4.854-4.095

						c1.826,0,3.441,0.776,4.535,1.911l-1.028,1.238c-0.944-0.882-2.079-1.448-3.507-1.448c-1.743,0-2.877,0.882-2.877,2.268

						c0,1.491,1.344,2.058,2.539,2.563l2.205,0.945c1.785,0.777,3.172,1.828,3.172,4.116c0,2.437-2.018,4.367-5.229,4.367

						C77.869,32.98,76,32.098,74.656,30.691z"/>

					<path d="M20.501,30.844c-0.744-0.744-4.459-4.459-4.459-4.459l-0.896,0.895l5.358,5.357L34.73,18.253l-0.901-0.891

						C33.83,17.36,21.34,29.996,20.501,30.844z"/>

</svg>