<svg width="72" height="72" viewBox="0 0 72 72" xmlns="http://www.w3.org/2000/svg">
<rect fill="none" width="72" height="72"/> 

									<rect x="33.744" y="4.368" fill="#2B2C5D" width="4.115" height="63.114"/> 

									<path fill="#2B2C5D" d="M25.323,61.169l-0.958,0.605v5.708h4.116c0,0,0-2.16,0-3.441

										c1.518-0.96,7.728-4.883,7.728-4.883l-2.197-3.479L25.323,61.169z"/>

									<path fill="#2B2C5D" d="M35.61,59.158c0,0,6.211,3.923,7.73,4.883c0,1.281,0,3.441,0,3.441h4.116v-5.708

										l-9.646-6.095L35.61,59.158z"/>

									<path fill="#FFFFFF" d="M63.697,46.854c0,1.286-1.047,2.331-2.331,2.331h-50.91c-1.289,0-2.334-1.045-2.334-2.331V18.131

										c0-1.287,1.045-2.332,2.334-2.332h50.91c1.284,0,2.331,1.045,2.331,2.332V46.854z"/>

								<path fill="#2B2C5D" d="M10.456,13.742c-2.422,0-4.392,1.973-4.392,4.39v28.722c0,2.422,1.97,4.389,4.392,4.389h50.91

									c2.419,0,4.389-1.967,4.389-4.389V18.131c0-2.417-1.97-4.39-4.389-4.39H10.456z M10.181,46.854V18.131

									c0-0.15,0.124-0.273,0.275-0.273h50.91c0.149,0,0.272,0.123,0.272,0.273v28.722c0,0.149-0.123,0.272-0.272,0.272h-50.91

									C10.304,47.126,10.181,47.003,10.181,46.854z"/>

									<rect x="5.04" y="9.851" fill="#B6E4F9" width="61.738" height="7.776"/> 

								<path fill="#2B2C5D" d="M66.778,7.793H2.982v11.893h65.854V7.793H66.778z M64.721,11.909c0,1.425,0,2.235,0,3.661

									c-3.715,0-53.908,0-57.622,0c0-1.425,0-2.235,0-3.661C10.813,11.909,61.006,11.909,64.721,11.909z"/>

									<rect x="18.123" y="22.832" fill="#2B2C5D" width="35.572" height="4.116"/> 

									<rect x="18.123" y="31.063" fill="#2B2C5D" width="35.572" height="4.117"/> 

									<rect x="18.123" y="39.295" fill="#2B2C5D" width="35.572" height="4.118"/> 
</svg>