<svg width="72" height="72" viewBox="0 0 72 72" xmlns="http://www.w3.org/2000/svg">
<rect fill="none" width="72" height="72"/> 


	<circle fill="#B6E4F9" cx="36" cy="36" r="30.917"/> 
	<path fill="#FFFFFF" d="M36.449,3.679V36l21.596,21.846C58.045,57.846,87.428,23.149,36.449,3.679z"/>
	<path fill="#2B2C5D" d="M2.958,36c0,18.22,14.822,33.042,33.04,33.042c18.22,0,33.043-14.822,33.043-33.042

									S54.218,2.958,35.999,2.958C17.78,2.958,2.958,17.78,2.958,36z M7.207,36c0-15.877,12.917-28.793,28.792-28.793

									c15.877,0,28.795,12.917,28.795,28.793S51.875,64.793,35.999,64.793C20.123,64.793,7.207,51.877,7.207,36z"/>


	<path fill="#2B2C5D" d="M33.875,5.083l0.003,31.825l22.345,21.411l2.937-3.067

								c0,0-19.803-18.979-21.034-20.159c0-1.708-0.003-30.01-0.003-30.01H33.875z"/>


	<rect x="36.001" y="33.876" fill="#2B2C5D" width="30.916" height="4.25"/> 
</svg>