<svg width="72" height="72" viewBox="0 0 72 72" xmlns="http://www.w3.org/2000/svg">
<rect fill="none" width="72" height="72"/> 

<path fill="#FFFFFF" d="M66.296,51.374c0,1.291-1.045,2.338-2.332,2.338H8.036

								c-1.288,0-2.333-1.047-2.333-2.338v-40.19c0-1.287,1.045-2.333,2.333-2.333h55.928c1.287,0,2.332,1.046,2.332,2.333V51.374z"

								/>

									<path fill="#2B2C5D" d="M30.446,55.28c0,0-0.564,4.334-4.614,7.354H40.16v-7.168L30.446,55.28z"/>

									<path fill="#2B2C5D" d="M41.548,55.28c0,0,0.566,4.334,4.619,7.354h-14.33v-7.168L41.548,55.28z"/>

									<path fill="#2B2C5D" d="M16.453,61.817c-0.937,0-1.698,0.756-1.698,1.695

										c0,0.936,0.762,1.697,1.698,1.697h39.094c0.938,0,1.699-0.762,1.699-1.697c0-0.939-0.762-1.695-1.699-1.695H16.453z"/>

								<path fill="#B6E4F9" d="M67.927,50.739c0,1.895-1.045,3.43-2.334,3.43H6.408c-1.291,0-2.336-1.535-2.336-3.43v-3.215

									c0-1.891,1.045-3.426,2.336-3.426h59.186c1.289,0,2.334,1.535,2.334,3.426V50.739z"/>

								<path fill="#2B2C5D" d="M8.036,6.79c-2.422,0-4.394,1.972-4.394,4.393v40.19

									c0,2.424,1.972,4.398,4.394,4.398h55.928c2.422,0,4.393-1.975,4.393-4.398v-40.19c0-2.421-1.971-4.393-4.393-4.393H8.036z

									 M7.762,51.374v-40.19c0-0.15,0.124-0.273,0.274-0.273h55.928c0.15,0,0.273,0.123,0.273,0.273v40.19

									c0,0.152-0.123,0.277-0.273,0.277H8.036C7.885,51.651,7.762,51.526,7.762,51.374z"/>

									<path fill="#2B2C5D" d="M41.308,30.082c-1.695-1.368-11.944-9.647-11.944-9.647L19.347,32.461l2.108,1.759

										c0,0,6.869-8.245,8.29-9.951c1.749,1.413,11.858,9.583,11.858,9.583l11.402-12.639l-2.039-1.84

										C50.966,19.375,42.773,28.457,41.308,30.082z"/>

										<circle fill="#FFFFFF" enable-background="new" cx="20.222" cy="34.057" r="4.073"/> 

									<path fill="#2B2C5D" d="M14.776,34.057c0,3.004,2.444,5.447,5.448,5.447c3,0,5.444-2.443,5.444-5.447

										c0-3.001-2.444-5.445-5.444-5.445C17.22,28.612,14.776,31.056,14.776,34.057z M17.522,34.057

										c0-1.489,1.212-2.699,2.702-2.699c1.488,0,2.698,1.209,2.698,2.699c0,1.488-1.209,2.701-2.698,2.701

										C18.735,36.758,17.522,35.545,17.522,34.057z"/>

										<path fill="#B6E4F9" d="M33.629,22.352c0,2.251-1.824,4.075-4.072,4.075c-2.25,0-4.073-1.824-4.073-4.075

											c0-2.247,1.824-4.071,4.073-4.071C31.805,18.28,33.629,20.104,33.629,22.352z"/>

									<path fill="#2B2C5D" d="M24.11,22.352c0,3.005,2.444,5.447,5.447,5.447c3.001,0,5.445-2.442,5.445-5.447

										c0-3.001-2.444-5.445-5.445-5.445C26.554,16.907,24.11,19.351,24.11,22.352z M26.856,22.352

										c0-1.488,1.213-2.698,2.701-2.698c1.489,0,2.699,1.21,2.699,2.698c0,1.489-1.209,2.701-2.699,2.701

										C28.069,25.052,26.856,23.84,26.856,22.352z"/>
									
										<circle fill="#FFFFFF" enable-background="new" cx="40.738" cy="31.946" r="4.072"/> 

									<path fill="#2B2C5D" d="M35.292,31.946c0,3.004,2.444,5.447,5.448,5.447c3.002,0,5.443-2.443,5.443-5.447

										c0-3.003-2.441-5.447-5.443-5.447C37.736,26.499,35.292,28.942,35.292,31.946z M38.039,31.946

										c0-1.489,1.211-2.701,2.701-2.701c1.488,0,2.699,1.212,2.699,2.701c0,1.489-1.211,2.701-2.699,2.701

										C39.25,34.646,38.039,33.435,38.039,31.946z"/>

										<path fill="#B6E4F9" d="M55.974,20.783c0,2.25-1.82,4.074-4.074,4.074c-2.25,0-4.07-1.823-4.07-4.074

											c0-2.25,1.82-4.074,4.07-4.074C54.154,16.708,55.974,18.533,55.974,20.783z"/>

									<path fill="#2B2C5D" d="M46.455,20.783c0,3.004,2.443,5.448,5.445,5.448c3.004,0,5.447-2.444,5.447-5.448

										s-2.443-5.447-5.447-5.447C48.898,15.335,46.455,17.779,46.455,20.783z M49.201,20.783c0-1.489,1.211-2.701,2.699-2.701

										s2.701,1.212,2.701,2.701s-1.213,2.701-2.701,2.701S49.201,22.271,49.201,20.783z"/>

							<rect x="5.893" y="42.04" fill="#2B2C5D" width="60.212" height="3.889"/> 
</svg>