<svg width="72" height="72" viewBox="0 0 72 72" xmlns="http://www.w3.org/2000/svg">
<rect fill="none" width="72" height="72"/> 
<rect x="11.873" y="17.285" fill="#B6E4F9" width="49.079" height="17.994"/> 
<path fill="#2B2C5D" d="M26.701,6.828c-4.224,0-7.659,3.439-7.659,7.662s3.436,7.66,7.659,7.66h11.806

								c4.224,0,7.659-3.438,7.659-7.66s-3.436-7.662-7.659-7.662H26.701z M22.056,14.49c0-2.565,2.084-4.646,4.646-4.646h11.806

								c2.562,0,4.646,2.081,4.646,4.646c0,2.562-2.084,4.643-4.646,4.643H26.701C24.14,19.132,22.056,17.051,22.056,14.49z"/>


						<path fill="#FFFFFF" d="M60.012,53.582c0,1.169-0.945,2.118-2.115,2.118H7.307

							c-1.164,0-2.108-0.949-2.108-2.118V17.227c0-1.163,0.944-2.11,2.108-2.11h50.59c1.17,0,2.115,0.947,2.115,2.11V53.582z"/>


						<path fill="#B6E4F9" d="M61.484,23.772c0,2.323-0.944,4.208-2.113,4.208H5.833c-1.166,0-2.112-1.884-2.112-4.208v-3.958

								c0-2.323,0.946-4.207,2.112-4.207h53.538c1.169,0,2.113,1.884,2.113,4.207V23.772z"/>


						<path fill="#2B2C5D" d="M7.307,13.61c-1.996,0-3.617,1.622-3.617,3.617v36.354

								c0,1.997,1.621,3.625,3.617,3.625h50.59c1.999,0,3.624-1.628,3.624-3.625V17.227c0-1.995-1.625-3.617-3.624-3.617H7.307z

								 M6.706,53.582V17.227c0-0.335,0.269-0.606,0.601-0.606h50.59c0.336,0,0.607,0.271,0.607,0.606v36.354

								c0,0.339-0.271,0.61-0.607,0.61H7.307C6.975,54.191,6.706,53.921,6.706,53.582z"/>


						<rect x="5.377" y="27.309" fill="#2B2C5D" width="54.455" height="3.013"/> 


						<circle fill="#B6E4F9" enable-background="new    " cx="45.83" cy="42.693" r="20.97"/> 

						<path fill="#2B2C5D" d="M23.35,42.693c0,12.397,10.086,22.48,22.479,22.48

										c12.396,0,22.48-10.083,22.48-22.48c0-12.396-10.085-22.477-22.48-22.477C33.436,20.216,23.35,30.297,23.35,42.693z

										 M26.368,42.693c0-10.73,8.731-19.464,19.461-19.464c10.732,0,19.467,8.734,19.467,19.464

										c0,10.735-8.734,19.464-19.467,19.464C35.1,62.157,26.368,53.428,26.368,42.693z"/>


						<path fill="#FFFFFF" enable-background="new    " d="M59.54,42.693

										c0,7.576-6.134,13.712-13.711,13.712c-7.572,0-13.709-6.137-13.709-13.712c0-7.574,6.137-13.71,13.709-13.71

										C53.406,28.983,59.54,35.119,59.54,42.693z"/>

						<path fill="#2B2C5D" d="M30.611,42.693c0,8.392,6.829,15.218,15.218,15.218

										c8.396,0,15.22-6.827,15.22-15.218c0-8.387-6.824-15.216-15.22-15.216C37.44,27.477,30.611,34.306,30.611,42.693z

										 M33.627,42.693c0-6.729,5.474-12.203,12.202-12.203c6.733,0,12.206,5.474,12.206,12.203

										c0,6.734-5.473,12.207-12.206,12.207C39.101,54.899,33.627,49.427,33.627,42.693z"/>


						<path fill="#2B2C5D" d="M45.829,32.364c0,0,0,8.097,0,10.329c-2.213,0-10.041,0-10.041,0v2.905h12.95

									V32.364H45.829z"/>
</svg>