<svg width="72" height="72" viewBox="0 0 72 72" xmlns="http://www.w3.org/2000/svg">
<rect fill="none" width="72" height="72"/> 
<path fill="#FFFFFF" d="M20.038,65.431c-1.654,0-2.998-1.281-2.998-2.848V9.415

									c0-1.567,1.344-2.849,2.998-2.849h40.008c1.648,0,2.998,1.281,2.998,2.849v45.571c0,5.763-4.938,10.444-11,10.444H20.038z"

									/>


									<path fill="#2B2C5D" d="M60.046,7.518c1.098,0,2,0.853,2,1.897v45.571

												c0,5.239-4.488,9.496-10.002,9.496H20.038c-1.104,0-2-0.854-2-1.899V9.415c0-1.045,0.896-1.897,2-1.897H60.046

												 M60.046,5.618H20.038c-2.21,0-3.999,1.7-3.999,3.797v53.168c0,2.098,1.788,3.799,3.999,3.799h32.006

												c6.625,0,12.002-5.099,12.002-11.396V9.415C64.046,7.318,62.253,5.618,60.046,5.618L60.046,5.618z"/>


									<path fill="#2B2C5D" d="M20.038,6.472c-1.679,0-3.047,1.318-3.047,2.943v53.168c0,1.623,1.368,2.946,3.047,2.946h32.006

										c6.09,0,11.049-4.729,11.049-10.543V9.415c0-1.625-1.369-2.943-3.047-2.943H20.038z M19.083,62.583V9.415

										c0-0.469,0.428-0.852,0.955-0.852h40.008C60.564,8.563,61,8.954,61,9.415v45.571c0,4.658-4.018,8.449-8.955,8.449H20.038

										C19.512,63.436,19.083,63.054,19.083,62.583z"/>

									<path fill="#2B2C5D" d="M20.038,4.571c-2.783,0-5.045,2.173-5.045,4.844v53.168c0,2.67,2.262,4.845,5.045,4.845h32.006

										c7.193,0,13.049-5.581,13.049-12.441V9.415c0-2.671-2.266-4.844-5.047-4.844H20.038z M17.086,62.583V9.415

										c0-1.516,1.324-2.75,2.952-2.75h40.008c1.629,0,2.953,1.234,2.953,2.75v45.571c0,5.707-4.914,10.35-10.955,10.35H20.038

										C18.411,65.336,17.086,64.101,17.086,62.583z"/>



									<path fill="#B6E4F9" d="M16.001,65.248C12.14,65.248,9,62.267,9,58.604v-1.899c0-0.523,0.446-0.948,1.002-0.948h31.042

										c0.322,3.992,2.658,7.464,6.039,9.492H16.001z"/>


								<path fill="#2B2C5D" d="M41.044,53.662H10.003c-1.706,0-3.096,1.366-3.096,3.042v1.899c0,4.818,4.08,8.738,9.094,8.738

									h38.645l-6.486-3.891c-2.891-1.732-4.771-4.673-5.027-7.864l-0.154-1.925H41.044z M39.357,57.849

									c0.441,1.924,1.268,3.715,2.459,5.307c-7.266,0-25.814,0-25.814,0c-2.707,0-4.908-2.041-4.908-4.552c0,0,0-0.393,0-0.755

									C13.009,57.849,36.452,57.849,39.357,57.849z"/>


													<path fill="#B6E4F9" d="M52.044,6.533H28.04v5.696c0,1.047,0.896,1.899,2,1.899h20

														c1.104,0,2.004-0.853,2.004-1.899V6.533L52.044,6.533z"/>


											<path fill="#2B2C5D" d="M52.044,4.86H26.366v7.369c0,1.971,1.646,3.573,3.674,3.573h20c2.027,0,3.676-1.603,3.676-3.573

												V4.86H52.044z M50.371,8.207c0,1.671,0,4.022,0,4.022c0,0.093-0.129,0.227-0.33,0.227h-20

												c-0.186,0-0.327-0.12-0.327-0.227c0,0,0-2.352,0-4.022C32.395,8.207,47.689,8.207,50.371,8.207z"/>


							<rect x="26.273" y="22.864" fill="#2B2C5D" width="27.101" height="4.186"/> 


							<rect x="26.273" y="31.64" fill="#2B2C5D" width="27.101" height="4.186"/> 


							<rect x="38.343" y="43.339" fill="#2B2C5D" width="15.031" height="4.187"/> 

</svg>