<svg width="72" height="72" viewBox="0 0 72 72" xmlns="http://www.w3.org/2000/svg">
<rect fill="none" width="72" height="72"/> 
<path fill="#FFFFFF" d="M48.166,43.127H45.51l-0.938-0.904c3.289-3.831,5.271-8.802,5.271-14.205

							c0-12.057-9.769-21.826-21.827-21.826c-12.054,0-21.826,9.769-21.826,21.826s9.772,21.827,21.826,21.827

							c5.403,0,10.377-1.982,14.202-5.271l0.909,0.94v2.652l16.787,16.756l5.006-5.003L48.166,43.127z"/>

						<path fill="#2B2C5D" d="M11.066,11.066c-4.527,4.528-7.021,10.547-7.021,16.952c0,13.22,10.754,23.972,23.973,23.972

							c4.63,0,9.109-1.405,12.964-3.901c0,0.004,0,0.967,0,0.967l18.936,18.901l8.039-8.035L49.057,40.979c0,0-0.963,0-0.967,0

							c2.493-3.858,3.899-8.335,3.899-12.962c0-13.218-10.752-23.973-23.973-23.973C21.614,4.045,15.594,6.539,11.066,11.066z

							 M8.339,28.018c0-5.257,2.047-10.198,5.764-13.916c3.716-3.716,8.658-5.762,13.915-5.762c10.852,0,19.679,8.827,19.679,19.678

							c0,4.688-1.688,9.236-4.753,12.81c0,0-0.587,0.68-0.966,1.124c-0.433,0.371-1.157,0.993-1.157,0.993

							c-3.564,3.064-8.111,4.753-12.804,4.753C17.165,47.696,8.339,38.869,8.339,28.018z M45.511,45.274c0,0,0.978,0,1.766,0

							c1.055,1.057,12.207,12.233,14.611,14.642c-0.835,0.832-1.14,1.138-1.973,1.97c-2.407-2.404-13.581-13.557-14.639-14.613

							c0-0.786,0-1.903,0-2C45.367,45.274,45.511,45.274,45.511,45.274z"/>

						<path fill="#B6E4F9" d="M41.228,28.031c0,7.452-6.035,13.496-13.487,13.496c-7.457,0-13.501-6.043-13.501-13.496

							c0-7.452,6.043-13.496,13.501-13.496C35.192,14.536,41.228,20.579,41.228,28.031z"/>

						<path fill="#2B2C5D" d="M12.093,28.031c0,8.625,7.019,15.644,15.647,15.644c8.621,0,15.635-7.019,15.635-15.644

							S36.362,12.388,27.74,12.388C19.111,12.388,12.093,19.406,12.093,28.031z M16.386,28.031c0-6.257,5.094-11.349,11.354-11.349

							c6.253,0,11.341,5.092,11.341,11.349s-5.088,11.35-11.341,11.35C21.479,39.381,16.386,34.289,16.386,28.031z"/>
</svg>