<svg width="72" height="72" viewBox="0 0 72 72" xmlns="http://www.w3.org/2000/svg">
<rect fill="none" width="72" height="72"/> 
<rect x="11.873" y="17.285" fill="#B6E4F9" width="49.079" height="17.994"/> 


							<path fill="#2B2C5D" d="M8.743,49.365V15.66c0-2.416,0.733-4.352,2.189-5.822

								c1.463-1.465,3.44-2.589,5.932-3.368c2.499-0.78,5.397-1.293,8.71-1.539c3.303-0.248,6.784-0.365,10.424-0.365

								c3.785,0,7.328,0.117,10.627,0.365c3.291,0.246,6.183,0.759,8.65,1.539c2.478,0.779,4.424,1.903,5.852,3.368

								c1.419,1.47,2.131,3.406,2.131,5.822v33.705c0,2.983-1.087,5.501-3.272,7.563c-2.171,2.077-4.829,3.109-7.963,3.109

								l5.843,5.545v1.851h-3.292l-7.788-7.396h-21.57l-7.785,7.396h-3.294v-1.851l5.837-5.545c-3.13,0-5.787-1.032-7.961-3.109

								C9.83,54.866,8.743,52.349,8.743,49.365z M35.998,8.267c-7.625,0-13.178,0.478-16.662,1.441

								c-3.471,0.961-5.578,2.377-6.293,4.243h46.012c-0.682-1.898-2.761-3.319-6.247-4.264C49.318,8.735,43.72,8.267,35.998,8.267z

								 M12.639,34.154h21.413V17.649H12.639V34.154z M52.022,37.849H12.639h46.724H52.022z M37.947,34.154h21.415V17.649H37.947

								V34.154z M22.372,51.219c1.239,0,2.272-0.395,3.101-1.179c0.826-0.788,1.242-1.768,1.242-2.945

								c0-1.177-0.416-2.161-1.242-2.948c-0.828-0.785-1.861-1.179-3.101-1.179c-1.24,0-2.274,0.394-3.101,1.179

								c-0.83,0.787-1.244,1.771-1.244,2.948c0,1.178,0.414,2.157,1.244,2.945C20.098,50.824,21.132,51.219,22.372,51.219z

								 M49.63,51.219c1.236,0,2.272-0.395,3.101-1.179c0.826-0.788,1.241-1.768,1.241-2.945c0-1.177-0.415-2.161-1.241-2.948

								c-0.828-0.785-1.864-1.179-3.101-1.179c-1.24,0-2.277,0.394-3.102,1.179c-0.83,0.787-1.244,1.771-1.244,2.948

								c0,1.178,0.414,2.157,1.244,2.945C47.353,50.824,48.39,51.219,49.63,51.219z M19.973,56.339h32.05

								c2.038,0,3.772-0.678,5.197-2.036c1.428-1.351,2.143-3.001,2.143-4.938V37.849H12.639v11.517

								c0,1.937,0.715,3.587,2.139,4.938C16.205,55.661,17.94,56.339,19.973,56.339z M35.998,13.951h23.057H13.043H35.998z"/>


							<rect x="18.548" y="62.011" fill="#2B2C5D" width="34.104" height="3.082"/> 
</svg>