<svg width="72" height="72" viewBox="0 0 72 72" xmlns="http://www.w3.org/2000/svg">
<rect fill="none" width="72" height="72"/> 
<polygon fill="#B6E4F9" points="5.836,24.596 5.836,9.923 32.573,9.923 39.428,22.948 "/>
<path fill="#2B2C5D" d="M32.573,7.867H3.78v18.89l38.97-1.913L33.813,7.867H32.573z M31.331,11.979

									c0.738,1.401,3.14,5.969,4.775,9.073c-4.893,0.238-24.822,1.215-28.214,1.382c0-2.625,0-7.935,0-10.455

									C11.222,11.979,29.254,11.979,31.331,11.979z"/>
<path fill="#FFFFFF" enable-background="new    " d="M66.164,59.888

									c0,1.21-1.045,2.19-2.331,2.19H8.169c-1.288,0-2.333-0.98-2.333-2.19V21.765c0-1.21,1.044-2.191,2.333-2.191h55.664

									c1.286,0,2.331,0.98,2.331,2.191V59.888z"/>

								<path fill="#2B2C5D" d="M8.169,17.518c-2.421,0-4.389,1.904-4.389,4.248v38.123

									c0,2.342,1.968,4.246,4.389,4.246h55.664c2.418,0,4.388-1.904,4.388-4.246V21.765c0-2.343-1.97-4.248-4.388-4.248H8.169z

									 M7.893,21.765l55.94-0.134l0.275,38.257c0,0.025-0.093,0.134-0.275,0.134H8.169L7.893,21.765z"/>
<path fill="#B6E4F9" d="M34.865,29.785l-2.59,5.249l-5.787,0.843c-1.039,0.15-1.457,1.431-0.705,2.164l4.191,4.081

										l-0.991,5.765c-0.177,1.044,0.918,1.825,1.839,1.338L36,46.501l5.18,2.724c0.92,0.482,2.02-0.294,1.839-1.338l-0.989-5.765

										l4.19-4.081c0.75-0.733,0.337-2.014-0.705-2.164l-5.79-0.843l-2.586-5.249C36.675,28.851,35.331,28.839,34.865,29.785z"/>
<path fill="#2B2C5D" d="M35.995,27.435c-1.113,0.002-2.113,0.623-2.606,1.623c0,0.002-1.65,3.347-2.206,4.474

									c-1.243,0.18-4.931,0.718-4.931,0.718c-1.104,0.158-2.006,0.918-2.352,1.982c-0.098,0.299-0.146,0.606-0.146,0.91

									c0,0.772,0.308,1.517,0.881,2.078c0,0,2.671,2.602,3.571,3.479c-0.213,1.238-0.844,4.911-0.844,4.911

									c-0.028,0.166-0.042,0.335-0.042,0.497c0,0.93,0.437,1.8,1.206,2.357c0.905,0.652,2.08,0.737,3.066,0.214

									c0,0,3.295-1.731,4.406-2.319c1.114,0.588,4.415,2.323,4.415,2.323c0.991,0.52,2.169,0.43,3.074-0.229

									c0.761-0.555,1.195-1.421,1.195-2.343c0-0.166-0.014-0.333-0.044-0.501c0,0-0.63-3.673-0.843-4.911

									c0.899-0.878,3.569-3.479,3.569-3.479c0.574-0.563,0.882-1.31,0.882-2.078c0-0.305-0.047-0.613-0.146-0.916

									c-0.347-1.061-1.248-1.818-2.352-1.977c0,0-3.688-0.538-4.932-0.718c-0.556-1.127-2.205-4.474-2.205-4.474

									C38.118,28.055,37.115,27.435,35.995,27.435z M32.512,36.662l0.855-0.126c0,0,2.121-4.298,2.635-5.337

									c0.51,1.036,2.63,5.337,2.63,5.337s4.752,0.693,5.893,0.859c-0.825,0.803-4.266,4.15-4.266,4.15s0.814,4.725,1.01,5.864

									C40.249,46.876,36,44.643,36,44.643s-4.242,2.23-5.265,2.768c0.196-1.134,1.009-5.864,1.009-5.864s-3.438-3.345-4.265-4.15

									C28.623,37.229,32.512,36.662,32.512,36.662z M33.389,29.057L33.389,29.057L33.389,29.057z"/>
</svg>