<svg width="72" height="72" viewBox="0 0 72 72" xmlns="http://www.w3.org/2000/svg">
<rect fill="none" width="72" height="72"/> 
<path fill="#FFFFFF" enable-background="new" d="M31.003,68.532

								c5.044,0,9.176-4.133,9.176-9.176H21.828C21.828,64.399,25.913,68.532,31.003,68.532z"/>

							<path fill="#2B2C5D" d="M40.18,57.407H19.876v1.949c0,6.135,4.992,11.127,11.127,11.127

								c6.134,0,11.125-4.992,11.125-11.127v-1.949H40.18z M37.833,61.307c-0.867,3.018-3.537,5.273-6.83,5.273

								s-5.962-2.256-6.83-5.273C27.219,61.307,34.788,61.307,37.833,61.307z"/>
<path fill="#B6E4F9" d="M48.619,51.711V37.031c0-9.016-4.814-16.565-13.211-18.563v-1.994

										c0-2.437-1.966-4.405-4.405-4.405c-2.437,0-4.405,1.968-4.405,4.405v1.994c-8.426,1.997-13.212,9.517-13.212,18.563v14.681

										l-5.873,5.869v2.939h46.983v-2.939L48.619,51.711z"/>
<path fill="#2B2C5D" d="M24.647,16.475c0,0,0,0.398,0,0.749c-8.01,2.66-13.212,10.133-13.212,19.807c0,0,0,12.429,0,13.872

								c-0.932,0.93-5.873,5.871-5.873,5.871v5.697h50.885v-5.697c0,0-4.943-4.941-5.877-5.871c0-1.445,0-13.872,0-13.872

								c0-9.668-5.201-17.141-13.212-19.807c0-0.351,0-0.749,0-0.749c0-3.504-2.851-6.356-6.355-6.356

								C27.499,10.119,24.647,12.97,24.647,16.475z M14.766,53.09l0.572-0.572V37.031c0-8.567,4.487-14.952,11.71-16.663

								l1.501-0.356v-3.537c0-1.353,1.101-2.455,2.454-2.455s2.454,1.102,2.454,2.455v3.536l1.501,0.356

								c7.224,1.718,11.712,8.104,11.712,16.665v15.487c0,0,4.943,4.941,5.875,5.871c0,0.074,0,0.1,0,0.18

								c-3.43,0-39.652,0-43.081,0c0-0.08,0-0.109,0-0.18C10.395,57.459,14.766,53.09,14.766,53.09z"/>
<path fill="#2B2C5D" d="M43.398,13.719c0.398,0.109,9.781,2.781,11.057,12.326l3.867-0.516

								C56.697,13.366,44.912,10.084,44.41,9.951L43.398,13.719z"/>
<path fill="#2B2C5D" d="M46.057,5.286C46.65,5.447,60.66,9.405,62.57,23.71l3.867-0.516

								C64.178,6.269,47.764,1.703,47.066,1.517L46.057,5.286z"/>
</svg>