<svg width="72" height="72" viewBox="0 0 72 72" xmlns="http://www.w3.org/2000/svg">
<rect fill="none" width="72" height="72"/> 
<circle fill="#B6E4F9" cx="35.933" cy="35.966" r="30.801"/> 
<path fill="#2B2C5D" d="M3.016,35.966c0,18.151,14.766,32.917,32.915,32.917c18.149,0,32.918-14.766,32.918-32.917

									c0-18.149-14.769-32.915-32.918-32.915C17.782,3.051,3.016,17.816,3.016,35.966z M7.248,35.966

									c0-15.815,12.867-28.683,28.683-28.683c15.817,0,28.687,12.867,28.687,28.683c0,15.817-12.869,28.685-28.687,28.685

									C20.115,64.65,7.248,51.783,7.248,35.966z"/>

<path fill="#FFFFFF" d="M35.928,66.181c-9.616,0-18.122-4.033-23.086-10.146

											c0.11-6.271,15.394-9.703,23.086-9.703c7.663,0,22.984,3.432,23.095,9.703C54.059,62.147,45.551,66.181,35.928,66.181z"/>
<path fill="#2B2C5D" d="M10.725,55.999l-0.014,0.771l0.487,0.598c5.559,6.846,14.803,10.928,24.729,10.928

									c9.932,0,19.178-4.082,24.737-10.928l0.486-0.598l-0.012-0.771c-0.159-8.883-18.803-11.784-25.212-11.784

									C29.521,44.215,10.882,47.116,10.725,55.999z M35.928,48.447c8.202,0,19.354,3.402,20.713,6.956

									c-4.823,5.398-12.431,8.661-20.713,8.661c-8.279,0-15.881-3.263-20.705-8.661C16.583,51.85,27.729,48.447,35.928,48.447z"/>
<circle fill="#FFFFFF" cx="35.932" cy="27.518" r="10.697"/> 
<path fill="#2B2C5D" d="M23.119,27.518c0,7.065,5.749,12.812,12.814,12.812s12.813-5.747,12.813-12.812

									c0-7.064-5.747-12.813-12.813-12.813S23.119,20.454,23.119,27.518z M27.35,27.518c0-4.731,3.851-8.58,8.583-8.58

									s8.581,3.849,8.581,8.58c0,4.73-3.85,8.58-8.581,8.58S27.35,32.249,27.35,27.518z"/>
</svg>