<svg width="72" height="72" viewBox="0 0 72 72" xmlns="http://www.w3.org/2000/svg">
<rect fill="none" width="72" height="72"/> 
<path fill="#2B2C5D" d="M54.184,13.53 M54.184,13.53c-0.561,0-0.935,0.05-1.13,0.105v3.579

							c0.232,0.056,0.519,0.071,0.913,0.071c1.455,0,2.354-0.737,2.354-1.977C56.321,14.194,55.55,13.53,54.184,13.53z"/>

						<path fill="#2B2C5D" d="M57.925,18.112 M57.925,18.112c-0.935,0.88-2.317,1.274-3.935,1.274c-0.363,0-0.683-0.016-0.934-0.047

							v4.33h-2.715l-0.004-11.955c0.844-0.146,2.031-0.251,3.701-0.251c1.689,0,2.894,0.324,3.704,0.972

							c0.771,0.612,1.296,1.62,1.296,2.804c0,1.183-0.401,2.193-1.118,2.873H57.925z M63.447,6.539H45.394

							c-1.383,0-2.505,1.061-2.505,2.363v17.044c0,1.306,1.122,2.365,2.505,2.365h18.054c1.379,0,2.505-1.06,2.505-2.365

							L65.948,8.902c0-1.303-1.122-2.363-2.505-2.363H63.447z"/>
<path fill="#B6E4F9" d="M15.024,23.793l21.857-0.354l10.224,11.986l18.331,5.641l1.411,17.275l-6.698,0.352

						c0,0,0-9.518-8.813-7.402c0,0-7.05,2.82-6.698,8.107l-17.627,0.705c0,0-2.116-8.107-3.878-8.107s-9.165-1.764-11.986,7.051

						l-5.993-0.705V36.836L15.024,23.793z"/>

					<path fill="#2B2C5D" d="M67.74,39.41l-18.401-6.611l-7.688-9.658c-1.355-1.656-3.382-2.613-5.521-2.609H17.101

						c-2.361,0-4.573,1.166-5.902,3.121l-6.451,9.479c-1.344,1.973-2.063,4.305-2.062,6.693v18.781c0,1.314,1.067,2.379,2.38,2.379

						h5.096c1.29,5.07,6.447,8.137,11.515,6.848c3.366-0.857,5.993-3.482,6.85-6.848h14.953c1.287,5.07,6.441,8.137,11.513,6.848

						c3.364-0.857,5.99-3.482,6.845-6.848h5.1c1.315,0,2.38-1.064,2.38-2.379V41.65C69.315,40.646,68.686,39.75,67.74,39.41z

						 M19.343,63.363c-2.628,0-4.759-2.131-4.759-4.758s2.131-4.76,4.759-4.76c2.629,0,4.76,2.133,4.76,4.76

						C24.101,61.23,21.972,63.359,19.343,63.363z M52.658,63.363c-2.629,0-4.76-2.131-4.76-4.758s2.131-4.76,4.76-4.76

						s4.76,2.133,4.76,4.76C57.411,61.23,55.285,63.359,52.658,63.363z M64.556,56.225h-2.72c-1.287-5.07-6.44-8.135-11.512-6.846

						c-3.364,0.855-5.989,3.48-6.846,6.846H28.525c-1.291-5.07-6.447-8.135-11.515-6.846c-3.366,0.855-5.994,3.48-6.85,6.846H7.445

						v-16.4c0-1.432,0.429-2.836,1.238-4.018l6.451-9.475c0.441-0.651,1.178-1.042,1.966-1.042h19.028

						c0.7-0.004,1.368,0.308,1.818,0.844l8.091,10.158c0.275,0.344,0.641,0.609,1.057,0.758l17.461,6.272V56.225z"/>

					<rect x="26.139" y="33.141" fill="#2B2C5D" width="22.244" height="4.428"/> 
</svg>