<svg width="150" height="80" viewBox="0 0 115 80" xmlns="http://www.w3.org/2000/svg">
<rect fill="none" width="115" height="80"/> 
<path fill="#E5E5E5" d="M97.328,47.958V29.654h2.945v-0.955h-2.945V16.087h2.904v-0.956h-2.904V11.75h-0.954v3.382H61.68

						v-3.223h-0.955v3.223H40.112v-3.303h-0.955v3.303H17.632v0.956h21.525V28.7H17.671v0.955h21.486V51.3H19.104v-9.071h-0.955

						V51.3h-3.422v0.955h3.422v12.097h-3.422v0.955h3.422v2.943h0.955v-2.943h20.053v2.863h0.955v-2.863h20.611v2.783h0.955v-2.783

						h37.799v-0.955H61.68V52.255h10.264V51.3H61.68V29.654h34.694v18.304H97.328z M40.112,16.087h20.611v12.612H40.112V16.087z

						 M19.104,64.352V52.255h20.053v12.097H19.104z M60.725,64.352H40.112V52.255h20.611v12.097H60.725z M60.725,51.3H40.112V29.654

						h20.611V51.3H60.725z M61.68,28.699V16.087h34.694v12.612H61.68z"/>

					<path fill="#00C7F4" d="M23.716,44.066c-0.005-3.229,2.608-5.853,5.839-5.855l43.13-0.063c3.229-0.004,5.854,2.608,5.854,5.84

						l0,0c0.006,3.23-2.606,5.851-5.838,5.857l-43.131,0.063C26.341,49.912,23.72,47.298,23.716,44.066L23.716,44.066z"/>

					<path fill="#FF1A00" d="M19.145,58.497c-0.004-2.927,2.366-5.302,5.293-5.306l23.394-0.035

						c2.926-0.002,5.303,2.363,5.307,5.293l0,0c0.004,2.926-2.365,5.302-5.291,5.308l-23.394,0.035

						C21.526,63.794,19.15,61.426,19.145,58.497L19.145,58.497z"/>

					<path fill="#00BE7D" d="M41.353,37.807c-0.005-3.904,2.72-7.072,6.085-7.077l44.947-0.068c3.369-0.004,6.1,3.156,6.106,7.061

						l0,0c0.007,3.903-2.718,7.07-6.085,7.076l-44.948,0.067C44.093,44.87,41.358,41.709,41.353,37.807L41.353,37.807z"/>

					<path fill="#F0B101" d="M62.529,22.626c-0.002-2.928,2.365-5.305,5.294-5.309l23.394-0.035

						c2.928-0.004,5.303,2.365,5.309,5.293l0,0c0.004,2.928-2.364,5.304-5.293,5.308l-23.394,0.034

						C64.912,27.923,62.536,25.553,62.529,22.626L62.529,22.626z"/>

					<path fill="#3819BD" d="M84.314,53.84c0.015-0.266-0.135-0.518-0.373-0.636l-12.648-6.11c-0.256-0.125-0.559-0.07-0.757,0.127

						c-0.203,0.198-0.257,0.5-0.136,0.758l5.879,12.414c0.113,0.229,0.349,0.379,0.604,0.379c0.006,0,0.006,0,0.01,0

						c0.262-0.004,0.496-0.162,0.601-0.4l1.292-3.01l3.507,3.498l1.854-1.856l-3.439-3.433l3.167-1.139

						C84.126,54.34,84.302,54.105,84.314,53.84z"/>

					<path fill="#009A7D" d="M78.541,43.986c-0.003-3.229-2.626-5.844-5.855-5.84L41.37,38.193c0.18,3.722,2.836,6.677,6.088,6.672

						l31.019-0.047C78.516,44.547,78.542,44.271,78.541,43.986z"/>
</svg>