<svg width="110" height="110" viewBox="0 0 110 110" xmlns="http://www.w3.org/2000/svg">
<rect fill="none" width="110" height="110"/> 
<path fill="#E5E5E5" d="M94.828,62.958V44.654h2.945v-0.955h-2.945V31.087h2.904v-0.956h-2.904V26.75h-0.954v3.382H59.18

						v-3.223h-0.955v3.223H37.612v-3.303h-0.955v3.303H15.132v0.956h21.525V43.7H15.171v0.955h21.486V66.3H16.604v-9.071h-0.955

						V66.3h-3.422v0.955h3.422v12.097h-3.422v0.955h3.422v2.943h0.955v-2.943h20.053v2.863h0.955v-2.863h20.611v2.783h0.955v-2.783

						h37.799v-0.955H59.18V67.255h10.264V66.3H59.18V44.654h34.694v18.304H94.828z M37.612,31.087h20.611v12.612H37.612V31.087z

						 M16.604,79.352V67.255h20.053v12.097H16.604z M58.225,79.352H37.612V67.255h20.611v12.097H58.225z M58.225,66.3H37.612V44.654

						h20.611V66.3H58.225z M59.18,43.699V31.087h34.694v12.612H59.18z"/>

					<path fill="#00C7F4" d="M21.216,59.066c-0.005-3.229,2.608-5.852,5.839-5.855l43.13-0.063c3.229-0.004,5.854,2.609,5.855,5.84

						l0,0c0.006,3.23-2.607,5.851-5.838,5.857l-43.131,0.063C23.841,64.912,21.22,62.298,21.216,59.066L21.216,59.066z"/>

					<path fill="#FF1A00" d="M16.645,73.497c-0.004-2.927,2.366-5.302,5.293-5.306l23.394-0.035

						c2.926-0.002,5.303,2.363,5.307,5.293l0,0c0.004,2.926-2.365,5.302-5.291,5.308l-23.394,0.035

						C19.026,78.794,16.65,76.426,16.645,73.497L16.645,73.497z"/>

					<path fill="#00BE7D" d="M38.853,52.806c-0.005-3.903,2.72-7.071,6.085-7.076l44.947-0.068c3.369-0.004,6.1,3.156,6.106,7.061

						l0,0c0.007,3.903-2.718,7.07-6.085,7.076l-44.948,0.067C41.593,59.87,38.858,56.709,38.853,52.806L38.853,52.806z"/>

					<path fill="#F0B101" d="M60.029,37.626c-0.002-2.928,2.365-5.305,5.294-5.309l23.394-0.035

						c2.928-0.004,5.303,2.365,5.309,5.293l0,0c0.004,2.928-2.365,5.304-5.293,5.308l-23.394,0.034

						C62.412,42.923,60.036,40.553,60.029,37.626L60.029,37.626z"/>

					<path fill="#3819BD" d="M81.814,68.84c0.015-0.266-0.135-0.518-0.373-0.636l-12.648-6.11c-0.256-0.125-0.559-0.07-0.757,0.127

						c-0.203,0.198-0.257,0.5-0.136,0.758l5.879,12.414c0.113,0.229,0.349,0.379,0.604,0.379c0.005,0,0.005,0,0.009,0

						c0.262-0.004,0.496-0.162,0.601-0.401l1.292-3.009l3.507,3.498l1.854-1.857l-3.439-3.432l3.167-1.139

						C81.626,69.34,81.802,69.105,81.814,68.84z"/>

					<path fill="#009A7D" d="M76.041,58.986c-0.003-3.229-2.626-5.843-5.855-5.839L38.87,53.193c0.18,3.722,2.836,6.677,6.088,6.672

						l31.019-0.047C76.016,59.547,76.042,59.271,76.041,58.986z"/>
</svg>