<svg width="24" height="24" viewBox="0 0 24 24" xmlns="http://www.w3.org/2000/svg">
<rect fill="none" width="24" height="24"/> 
<path d="M8.536,11.869c0,1.303,0.507,2.527,1.429,3.449c0.921,0.921,2.146,1.429,3.448,1.429

								s2.527-0.508,3.448-1.429c0.921-0.922,1.429-2.146,1.429-3.449s-0.508-2.527-1.429-3.449s-2.146-1.429-3.448-1.429

								C10.724,6.991,8.536,9.179,8.536,11.869z M10.672,14.611c-0.732-0.733-1.136-1.707-1.136-2.742

								c0-2.139,1.739-3.878,3.877-3.878c1.035,0,2.009,0.403,2.741,1.136c0.732,0.732,1.136,1.706,1.136,2.742

								c0,1.035-0.403,2.009-1.136,2.742c-0.732,0.732-1.706,1.136-2.741,1.136S11.404,15.343,10.672,14.611z"/>
<rect x="16.014" y="16.175" transform="matrix(-0.707 -0.7072 0.7072 -0.707 20.0424 41.653)" width="5.271" height="1"/> 
<rect x="1.859" y="3.833" width="15.213" height="1"/> 
<rect x="2.003" y="8.282" width="5.598" height="1"/> 
<rect x="1.859" y="12.733" width="5.598" height="1"/> 
<rect x="2.003" y="17.325"  width="5.598" height="1"/> 
</svg>