<svg width="30" height="24" viewBox="0 0 30 24" xmlns="http://www.w3.org/2000/svg">
<rect fill="none" width="30" height="24"/> 

								<path d="M15.206,9.438c0,2.289,1.862,4.151,4.151,4.151c2.288,0,4.15-1.862,4.15-4.151

									c0-2.288-1.862-4.15-4.15-4.15C17.068,5.288,15.206,7.15,15.206,9.438z M16.147,9.438c0-1.769,1.44-3.208,3.21-3.208

									c1.769,0,3.208,1.439,3.208,3.208c0,1.77-1.439,3.209-3.208,3.209C17.588,12.647,16.147,11.208,16.147,9.438z"/>

								<path d="M11.526,18.639v2.311h15.661v-2.311c0-2.957-5.526-4.151-7.83-4.151

									C17.053,14.487,11.526,15.682,11.526,18.639z M12.468,18.639c0-1.991,4.46-3.209,6.889-3.209s6.888,1.218,6.888,3.209

									c0,0,0,0.847,0,1.368c-0.854,0-12.923,0-13.777,0C12.468,19.485,12.468,18.639,12.468,18.639z"/>

									<path d="M10.644,12.25c-2.305,0-7.831,1.194-7.831,4.151v2.311h9.224v-0.001c0,0,0.124-0.407,0.477-0.941

										H3.754c0-0.521,0-1.368,0-1.368c0-1.991,4.46-3.209,6.889-3.209c1.917,0,5.092,0.762,6.348,2.061

										c0.343-0.041,0.701-0.071,1.091-0.074l0.057,0.046C16.923,13.126,12.613,12.25,10.644,12.25z M10.644,11.353

										c2.289,0,4.15-1.862,4.15-4.151c0-2.288-1.862-4.15-4.15-4.15s-4.151,1.862-4.151,4.15

										C6.492,9.49,8.355,11.353,10.644,11.353z M10.644,3.993c1.769,0,3.208,1.439,3.208,3.208c0,1.77-1.439,3.209-3.208,3.209

										c-1.77,0-3.209-1.439-3.209-3.209C7.435,5.433,8.874,3.993,10.644,3.993z"/>

</svg>