<svg width="24" height="24" viewBox="0 0 24 24" xmlns="http://www.w3.org/2000/svg">
<rect fill="none" width="24" height="24"/> 
<path d="M5.31,2.916c-1.32,0-2.395,1.074-2.395,2.395v13.381c0,1.319,1.074,2.393,2.395,2.393H18.69

									c1.32,0,2.395-1.073,2.395-2.393V5.311c0-1.321-1.074-2.395-2.395-2.395H5.31z M3.915,18.691V5.311

									c0-0.769,0.625-1.395,1.395-1.395H18.69c0.769,0,1.395,0.626,1.395,1.395v13.381c0,0.768-0.626,1.393-1.395,1.393H5.31

									C4.541,20.084,3.915,19.459,3.915,18.691z"/>

										<rect x="7.855" y="6.729" width="10.125" height="1"/> 


										<rect x="5.855" y="6.729" width="1.042" height="1"/> 


										<rect x="7.855" y="9.937" width="10.125" height="1"/> 


										<rect x="5.855" y="9.937" width="1.042" height="1"/> 


										<rect x="7.855" y="13.104" width="10.125" height="1"/> 


										<rect x="5.855" y="13.104" width="1.042" height="1"/> 


										<rect x="7.855" y="16.271" width="10.125" height="1"/> 


										<rect x="5.855" y="16.271" width="1.042" height="1"/> 

</svg>