<svg width="24" height="24" viewBox="0 0 24 24" xmlns="http://www.w3.org/2000/svg">
<rect fill="none" width="24" height="24"/> 
<path d="M6.238,3.938c-1.579,0-2.863,1.19-2.863,2.654v13.192c0,1.464,1.285,2.653,2.863,2.653h11.522

								c1.579,0,2.864-1.189,2.864-2.653V6.591c0-1.463-1.285-2.654-2.864-2.654H6.238z M4.375,19.784V6.591

								c0-0.912,0.836-1.654,1.863-1.654h11.522c1.028,0,1.864,0.742,1.864,1.654v13.192c0,0.912-0.836,1.653-1.864,1.653H6.238

								C5.211,21.437,4.375,20.696,4.375,19.784z"/>
<rect x="8.438" y="4.438" width="7.125" height="2.5"/> 
<path d="M9.5,4.063c0,1.378,1.122,2.5,2.5,2.5c1.379,0,2.5-1.122,2.5-2.5s-1.121-2.5-2.5-2.5

								C10.622,1.563,9.5,2.684,9.5,4.063z M10.5,4.063c0-0.827,0.673-1.5,1.5-1.5s1.5,0.673,1.5,1.5s-0.673,1.5-1.5,1.5

								S10.5,4.89,10.5,4.063z"/>
<rect x="6.938" y="15.132" width="10.125" height="1"/> 
<rect x="6.938" y="18.339" width="10.125" height="1"/> 
<path d="M10.841,11.973c-0.435-0.566-1.32-1.715-1.32-1.715l-0.792,0.61l2.015,2.618L15.229,9

									l-0.707-0.707C14.521,8.292,11.495,11.319,10.841,11.973z"/>
</svg>