<svg width="24" height="24" viewBox="0 0 24 24" xmlns="http://www.w3.org/2000/svg">
<rect fill="none" width="24" height="24"/> 
<path d="M1.5,12c0,5.514,4.486,10,10,10c5.514,0,10-4.486,10-10c0-5.514-4.486-10-10-10

									C5.986,2,1.5,6.486,1.5,12z M2.5,12c0-4.962,4.038-9,9-9c4.963,0,9,4.038,9,9c0,4.963-4.037,9-9,9

									C6.538,21,2.5,16.963,2.5,12z"/>
<path d="M11.123,14.291c-0.587-0.587-3.52-3.52-3.52-3.52l-0.707,0.707l4.23,4.23L22.355,4.352

									l-0.711-0.703C21.645,3.648,11.785,13.621,11.123,14.291z"/>
</svg>